<?xml version="1.0" encoding="utf-8"?>
<!-- Generator: Adobe Illustrator 25.4.0, SVG Export Plug-In . SVG Version: 6.00 Build 0)  -->
<svg version="1.1" id="Layer_1" xmlns="http://www.w3.org/2000/svg" xmlns:xlink="http://www.w3.org/1999/xlink" x="0px" y="0px"
	 viewBox="0 0 32 32" style="enable-background:new 0 0 32 32;" xml:space="preserve">
<style type="text/css">
	.st0{fill:url(#SVGID_1_);}
	.st1{fill:url(#SVGID_00000080206198967105150510000005056442427267816892_);}
	.st2{fill:url(#SVGID_00000031889061282506027090000006867472214183528883_);}
	.st3{fill:url(#SVGID_00000066514544126097032770000010237436932008926881_);}
	.st4{fill:#FFFFFF;}
</style>
<g>
	
		<linearGradient id="SVGID_1_" gradientUnits="userSpaceOnUse" x1="-638.953" y1="385.003" x2="-638.5251" y2="385.003" gradientTransform="matrix(25 0 0 -25 15984 9632)">
		<stop  offset="0" style="stop-color:#ED358C"/>
		<stop  offset="0.155" style="stop-color:#E9388C"/>
		<stop  offset="0.297" style="stop-color:#DE418C"/>
		<stop  offset="0.433" style="stop-color:#CC508C"/>
		<stop  offset="0.566" style="stop-color:#B2658D"/>
		<stop  offset="0.697" style="stop-color:#90808D"/>
		<stop  offset="0.826" style="stop-color:#67A18E"/>
		<stop  offset="0.951" style="stop-color:#37C78F"/>
		<stop  offset="1" style="stop-color:#22D88F"/>
	</linearGradient>
	<path class="st0" d="M12.3,13l-2.1,0.9L12.1,0l7.4,4L12.3,13z"/>
	
		<linearGradient id="SVGID_00000101801312834665233130000011644213566462860204_" gradientUnits="userSpaceOnUse" x1="-639.0349" y1="385.1159" x2="-639.2231" y2="383.8526" gradientTransform="matrix(25 0 0 -25 15984 9632)">
		<stop  offset="9.099999e-02" style="stop-color:#22D88F"/>
		<stop  offset="0.903" style="stop-color:#029DE0"/>
	</linearGradient>
	<path style="fill:url(#SVGID_00000101801312834665233130000011644213566462860204_);" d="M11.1,19.2L12.2,0L3,5.8L0,23.5L11.1,19.2
		z"/>
	
		<linearGradient id="SVGID_00000092417634204737746830000012569412305234129836_" gradientUnits="userSpaceOnUse" x1="-638.1924" y1="385.1611" x2="-639.4801" y2="383.8011" gradientTransform="matrix(25 0 0 -25 15984 9632)">
		<stop  offset="9.099999e-02" style="stop-color:#22D88F"/>
		<stop  offset="0.903" style="stop-color:#029DE0"/>
	</linearGradient>
	<path style="fill:url(#SVGID_00000092417634204737746830000012569412305234129836_);" d="M31.4,9.6l-4.1-8.4L19.5,4l-5.7,6.4
		L0,23.5l10.4,7.5l13-11.7L31.4,9.6z"/>
	
		<linearGradient id="SVGID_00000059289522021971803220000004936303581495676033_" gradientUnits="userSpaceOnUse" x1="-638.6265" y1="384.3773" x2="-638.1371" y2="384.3077" gradientTransform="matrix(25 0 0 -25 15984 9632)">
		<stop  offset="9.099999e-02" style="stop-color:#22D88F"/>
		<stop  offset="0.903" style="stop-color:#029DE0"/>
	</linearGradient>
	<path style="fill:url(#SVGID_00000059289522021971803220000004936303581495676033_);" d="M13.4,13.7l-1.8,11l7.3,5.6l8,1.7l5-11.4
		L13.4,13.7z"/>
	<path d="M6.1,6.1h19.7v19.7H6.1V6.1z"/>
	<path class="st4" d="M8,22.2h7.4v1.2H8V22.2z"/>
	<path class="st4" d="M7.9,12.8c0-2.3,1.7-4.3,4.3-4.3c1.6,0,2.5,0.5,3.2,1.3l-1.1,1.3c-0.6-0.6-1.3-0.9-2.1-0.9
		c-1.4,0-2.4,1.1-2.4,2.6v0c0,1.4,1,2.6,2.4,2.6c0.9,0,1.5-0.4,2.1-1l1.1,1.1c-0.8,0.9-1.8,1.5-3.3,1.5C9.6,17.1,7.9,15.2,7.9,12.8z
		"/>
	<path class="st4" d="M16.6,8.7h1.8v6.7H22v1.5h-5.3V8.7z"/>
</g>
</svg>
