<?xml version="1.0" encoding="utf-8"?>
<!-- Generator: Adobe Illustrator 25.4.0, SVG Export Plug-In . SVG Version: 6.00 Build 0)  -->
<svg version="1.1" id="Layer_1" xmlns="http://www.w3.org/2000/svg" xmlns:xlink="http://www.w3.org/1999/xlink" x="0px" y="0px"
	 viewBox="0 0 32 32" style="enable-background:new 0 0 32 32;" xml:space="preserve">
<style type="text/css">
	.st0{fill:#9775F8;}
	.st1{fill:url(#SVGID_1_);}
	.st2{fill:url(#SVGID_00000141443357386600351620000012511632093241279656_);}
	.st3{fill:url(#SVGID_00000009552903510175263450000008593957252151814791_);}
	.st4{fill:url(#SVGID_00000088826773916592308380000014036016092322047107_);}
	.st5{fill:#FFFFFF;}
</style>
<g>
	<path class="st0" d="M30,4.9L32,18l-7.8,4.5l-1.5-7.4L30,4.9L30,4.9z"/>
	
		<linearGradient id="SVGID_1_" gradientUnits="userSpaceOnUse" x1="-631.8876" y1="-4959.5654" x2="-631.76" y2="-4959.8833" gradientTransform="matrix(19.5312 0 0 19.5312 12360.3438 96874.5781)">
		<stop  offset="0" style="stop-color:#9775F8"/>
		<stop  offset="0.95" style="stop-color:#22D88F"/>
	</linearGradient>
	<path class="st1" d="M30,4.9L18.5,0L8.9,8l13.9,7.1L30,4.9z"/>
	
		<linearGradient id="SVGID_00000088843370965201400880000002960759229174180247_" gradientUnits="userSpaceOnUse" x1="-632.4501" y1="-4959.1299" x2="-632.2844" y2="-4958.4082" gradientTransform="matrix(19.5312 0 0 19.5312 12360.3438 96874.5781)">
		<stop  offset="0" style="stop-color:#9775F8"/>
		<stop  offset="0.21" style="stop-color:#689CCE"/>
		<stop  offset="0.42" style="stop-color:#42BDAC"/>
		<stop  offset="0.59" style="stop-color:#2BD197"/>
		<stop  offset="0.69" style="stop-color:#22D88F"/>
	</linearGradient>
	<path style="fill:url(#SVGID_00000088843370965201400880000002960759229174180247_);" d="M21.6,32l-13.4-18l-4,2.7l-4,11.9L21.6,32
		z"/>
	
		<linearGradient id="SVGID_00000040537716470910171480000013934091883962271150_" gradientUnits="userSpaceOnUse" x1="-632.7355" y1="-4959.1812" x2="-631.2999" y2="-4958.3882" gradientTransform="matrix(19.5312 0 0 19.5312 12360.3438 96874.5781)">
		<stop  offset="8.000000e-02" style="stop-color:#22D88F"/>
		<stop  offset="0.72" style="stop-color:#9775F8"/>
	</linearGradient>
	<path style="fill:url(#SVGID_00000040537716470910171480000013934091883962271150_);" d="M24.1,22.9l-9.4-6.1L0,14.8L21.6,32
		L24.1,22.9z"/>
	
		<linearGradient id="SVGID_00000012461077166466446740000014122821164646653339_" gradientUnits="userSpaceOnUse" x1="-632.8496" y1="-4959.3511" x2="-631.4068" y2="-4959.3511" gradientTransform="matrix(19.5312 0 0 19.5312 12360.3438 96874.5781)">
		<stop  offset="8.000000e-02" style="stop-color:#22D88F"/>
		<stop  offset="0.27" style="stop-color:#5AB0B4"/>
		<stop  offset="0.56" style="stop-color:#B86CF2"/>
		<stop  offset="1" style="stop-color:#FF59E6"/>
	</linearGradient>
	<path style="fill:url(#SVGID_00000012461077166466446740000014122821164646653339_);" d="M0,0.2v14.6l27.8,9.5L30,4.9L0,0.2z"/>
	<g>
		<path d="M6,6h20v20H6V6z"/>
		<g>
			<path class="st5" d="M8,8.6h3.2c2.6,0,4.4,1.8,4.4,4.1v0c0,2.3-1.8,4.1-4.4,4.1H8V8.6z M9.9,10.2v5h1.4c1.5,0,2.5-1,2.5-2.5v0
				c0-1.5-1-2.5-2.5-2.5H9.9z M16,12.8L16,12.8c0-2.4,1.9-4.3,4.2-4.3c0,0,0.1,0,0.1,0c1.5,0,2.4,0.4,3.2,1.1L22.4,11
				c-0.6-0.6-1.4-0.9-2.2-0.8c-1.3,0-2.4,1.2-2.4,2.6v0c0,1.5,1,2.6,2.5,2.6c0.6,0,1.2-0.2,1.7-0.5v-1.2h-1.8v-1.6h3.6v3.6
				c-1,0.9-2.2,1.3-3.5,1.3C17.8,17,16,15.2,16,12.8L16,12.8z M7.8,22.2h7.5v1.2H7.8V22.2z"/>
		</g>
	</g>
</g>
</svg>
