<?xml version="1.0" encoding="utf-8"?>
<!-- Generator: Adobe Illustrator 25.4.0, SVG Export Plug-In . SVG Version: 6.00 Build 0)  -->
<svg version="1.1" id="Layer_1" xmlns="http://www.w3.org/2000/svg" xmlns:xlink="http://www.w3.org/1999/xlink" x="0px" y="0px"
	 viewBox="0 0 43.6 32" style="enable-background:new 0 0 43.6 32;" xml:space="preserve">
<style type="text/css">
	.st0{fill:#41CD52;}
	.st1{fill:#FFFFFF;}
</style>
<g id="Layer_2_00000013901739424715481890000004980515443454494131_">
	<g id="Layer_1-2">
		<path class="st0" d="M6,0h37.6v25.9L37.5,32H0V6L6,0z"/>
		<path class="st1" d="M11.6,6.7c1.4-0.9,3.2-1.2,4.9-1.2c1.6,0,3.3,0.3,4.6,1.3c1,0.7,1.6,1.7,2,2.8c0.7,1.8,0.9,3.7,0.9,5.6
			c0,1.9-0.1,3.8-0.7,5.6c-0.4,1.2-1.2,2.3-2.3,3.1l2.3,3.7l-2.9,1.3l-2.4-4c-1.1,0.2-2.2,0.2-3.3,0c-1.3-0.2-2.7-0.6-3.7-1.5
			c-0.8-0.7-1.3-1.6-1.6-2.6c-0.6-1.6-0.7-3.4-0.7-5.1c0-1.9,0.1-3.8,0.7-5.5C9.6,8.9,10.3,7.5,11.6,6.7L11.6,6.7z M27.8,6.7h3v4
			h3.8l-0.1,2.6c-1.3,0-2.6,0-3.8,0l0,6.5c0,0.6,0,1.2,0.3,1.8c0.2,0.4,0.7,0.5,1.1,0.5l2.4-0.1l0.1,2.4c-1.6,0.3-3.2,0.6-4.8,0.1
			c-0.7-0.2-1.3-0.6-1.5-1.3c-0.5-1.1-0.5-2.3-0.5-3.5v-6.4c-0.7,0-1.4,0-2.1,0v-2.6h2.1L27.8,6.7L27.8,6.7z"/>
		<path class="st0" d="M15.2,8.3c1-0.1,2-0.1,2.9,0.3c0.8,0.3,1.4,0.9,1.7,1.6c0.5,1.1,0.7,2.3,0.8,3.5c0.1,1.6,0.1,3.2-0.1,4.8
			c-0.2,0.9-0.4,2-1,2.7c-0.6,0.7-1.7,1.1-2.6,1.2c-1,0.1-2.1,0-3-0.5c-0.5-0.3-1-0.7-1.3-1.3c-0.3-0.7-0.5-1.4-0.6-2.1
			c-0.4-2.3-0.5-4.6,0-6.9c0.2-0.9,0.5-1.7,1.1-2.4C13.6,8.7,14.4,8.4,15.2,8.3L15.2,8.3z"/>
	</g>
</g>
</svg>
