<?xml version="1.0" encoding="utf-8"?>
<!-- Generator: Adobe Illustrator 25.4.0, SVG Export Plug-In . SVG Version: 6.00 Build 0)  -->
<svg version="1.1" id="Layer_1" xmlns="http://www.w3.org/2000/svg" xmlns:xlink="http://www.w3.org/1999/xlink" x="0px" y="0px"
	 viewBox="0 0 42.7 32" style="enable-background:new 0 0 42.7 32;" xml:space="preserve">
<style type="text/css">
	.st0{fill:#AE0F0A;}
	.st1{fill:#4F81C1;}
	.st2{fill:#FFD400;}
</style>
<g>
	<path class="st0" d="M40,13.3c1.4,0,2.7,1.2,2.7,2.7v13.3c0,1.4-1.2,2.7-2.7,2.7h-5.3c-1.4,0-2.7-1.2-2.7-2.7V16
		c0-1.4,1.2-2.7,2.7-2.7H40z"/>
	<path class="st1" d="M24,0c1.4,0,2.7,1.2,2.7,2.7v26.7c0,1.4-1.2,2.7-2.7,2.7h-5.3c-1.4,0-2.7-1.2-2.7-2.7V2.7
		C16,1.2,17.2,0,18.7,0H24z"/>
	<path class="st2" d="M8,8c1.4,0,2.7,1.2,2.7,2.7v18.7c0,1.4-1.2,2.7-2.7,2.7H2.7C1.2,32,0,30.8,0,29.3V10.7C0,9.2,1.2,8,2.7,8H8z"
		/>
</g>
</svg>
