<svg xmlns="http://www.w3.org/2000/svg" viewBox="0 0 160.72 156.73"><defs><style>.cls-1{fill:#ff7e1b;}.cls-2{fill:#41322a;}</style></defs><g id="Layer_2" data-name="Layer 2"><g id="Layer_1-2" data-name="Layer 1"><path class="cls-1" d="M160.72,28.46v99.81a28.41,28.41,0,0,1-28.46,28.46H28.46a27.45,27.45,0,0,1-20.14-8.32A27.42,27.42,0,0,1,0,128.27V28.46A27.41,27.41,0,0,1,8.32,8.32,27.41,27.41,0,0,1,28.46,0h103.8A27.41,27.41,0,0,1,152.4,8.32,27.41,27.41,0,0,1,160.72,28.46ZM154,125.66V31a23.47,23.47,0,0,0-7.09-17.17,23.39,23.39,0,0,0-17.21-7.13H31a23.43,23.43,0,0,0-17.17,7.13A23.49,23.49,0,0,0,6.69,31.07v94.59a23.45,23.45,0,0,0,7.13,17.24A23.4,23.4,0,0,0,31,150h98.74a23.24,23.24,0,0,0,17.05-7A24.2,24.2,0,0,0,154,125.66Z"/><path class="cls-2" d="M154,31v94.67A24.2,24.2,0,0,1,146.78,143a23.24,23.24,0,0,1-17.05,7H31a23.4,23.4,0,0,1-17.17-7.14,23.45,23.45,0,0,1-7.13-17.24V31.07a23.49,23.49,0,0,1,7.13-17.25A23.43,23.43,0,0,1,31,6.69h98.66a23.39,23.39,0,0,1,17.21,7.13A23.47,23.47,0,0,1,154,31Zm-30.66,87.17V59.69c0-.71-.3-1-.89-.9H110.82q-1,0-.9.9l.08,58.38c0,.6.33.93,1,1H122.4c.43,0,.69-.08.77-.24A1.48,1.48,0,0,0,123.29,118.16Zm.9-75.35q0-6.77-7.58-7.58a7.71,7.71,0,0,0-5.39,2,7.17,7.17,0,0,0-2.2,5.58q0,7.34,7.42,7.59a8.08,8.08,0,0,0,5.55-2A7.13,7.13,0,0,0,124.19,42.81ZM98.34,119.05c.6,0,.76-.32.49-1l-23.57-80a1.08,1.08,0,0,0-.24-.57,1,1,0,0,0-.65-.16H58.87c-.38,0-.59.24-.65.73,0,1.74-.13,3.05-.24,3.92a12.57,12.57,0,0,1-.49,2.28l-21,73.63a1.65,1.65,0,0,0,0,.86c.08.19.34.28.77.28H48.11a1.06,1.06,0,0,0,.77-.2,1.82,1.82,0,0,0,.37-.61L55.12,96H78.77l6,22.34a1.22,1.22,0,0,0,1.23.73Z"/><path class="cls-1" d="M123.29,59.69v58.47a1.48,1.48,0,0,1-.12.65c-.08.16-.34.24-.77.24H111c-.65,0-1-.38-1-1l-.08-58.38q-.09-.9.9-.9H122.4C123,58.69,123.29,59,123.29,59.69Z"/><path class="cls-1" d="M116.61,35.23q7.58.81,7.58,7.58a7.13,7.13,0,0,1-2.2,5.63,8.08,8.08,0,0,1-5.55,2Q109,50.15,109,42.81a7.17,7.17,0,0,1,2.2-5.58A7.71,7.71,0,0,1,116.61,35.23Z"/><path class="cls-1" d="M98.83,118.07c.27.66.11,1-.49,1H86a1.22,1.22,0,0,1-1.23-.73L78.77,96H55.12l-5.87,22.26a1.82,1.82,0,0,1-.37.61,1.06,1.06,0,0,1-.77.2H37.26c-.43,0-.69-.09-.77-.28a1.65,1.65,0,0,1,0-.86l21-73.63A12.57,12.57,0,0,0,58,42c.11-.87.19-2.18.24-3.92.06-.49.27-.73.65-.73h15.5a1,1,0,0,1,.65.16,1.08,1.08,0,0,1,.24.57Zm-40.69-34H75.67q-1-3.91-2.53-9.86C72,69.8,70.76,65.32,69.6,60.75s-2.08-8.43-2.74-11.58H66.7Q65.49,56,63,65.56T58.14,84.07Z"/><path class="cls-2" d="M75.67,84.07H58.14q2.45-9,4.89-18.51T66.7,49.17h.16q1,4.72,2.74,11.58c1.16,4.57,2.35,9,3.54,13.46Q74.7,80.15,75.67,84.07Z"/></g></g></svg>