<svg xmlns="http://www.w3.org/2000/svg" viewBox="0 0 160.72 156.73"><defs><style>.cls-1{fill:#eb43a3;}.cls-2{fill:#412534;}</style></defs><g id="Layer_2" data-name="Layer 2"><g id="Layer_1-2" data-name="Layer 1"><path class="cls-1" d="M160.72,28.46v99.81a28.41,28.41,0,0,1-28.46,28.46H28.46a27.47,27.47,0,0,1-20.15-8.32A27.45,27.45,0,0,1,0,128.27V28.46A27.44,27.44,0,0,1,8.31,8.32,27.43,27.43,0,0,1,28.46,0h103.8A27.41,27.41,0,0,1,152.4,8.32,27.41,27.41,0,0,1,160.72,28.46ZM154,125.66V31a23.51,23.51,0,0,0-7.09-17.17,23.39,23.39,0,0,0-17.21-7.13H31a23.41,23.41,0,0,0-17.16,7.13A23.5,23.5,0,0,0,6.68,31.07v94.59a23.46,23.46,0,0,0,7.14,17.24A23.38,23.38,0,0,0,31,150h98.75a23.2,23.2,0,0,0,17-7A24.17,24.17,0,0,0,154,125.66Z"/><path class="cls-2" d="M154,31v94.67A24.17,24.17,0,0,1,146.77,143a23.2,23.2,0,0,1-17,7H31a23.38,23.38,0,0,1-17.16-7.14,23.46,23.46,0,0,1-7.14-17.24V31.07a23.5,23.5,0,0,1,7.14-17.25A23.41,23.41,0,0,1,31,6.69h98.67a23.39,23.39,0,0,1,17.21,7.13A23.51,23.51,0,0,1,154,31Zm-35.8,83.37c.11-.08.17-.25.17-.53-.28-3-.41-5.51-.41-7.58V35.88a.64.64,0,0,0-.12-.45,1,1,0,0,0-.62-.12H104.94a.89.89,0,0,0-.49.16.64.64,0,0,0-.24.57v19.9c-.71,0-1.35-.08-1.92-.08h-2.08q-14.26,0-22.58,9.25T69.31,87.9q0,15.75,8.07,23.49t20.55,7.75a48.06,48.06,0,0,0,19.73-4.49A2.74,2.74,0,0,0,118.15,114.36Zm-62,2.57V36.12q0-.88-.9-.81H43.54c-.65,0-1,.3-1,.9v80.72a.86.86,0,0,0,1,1H55.12a1.32,1.32,0,0,0,.82-.16A1.37,1.37,0,0,0,56.1,116.93Z"/><path class="cls-1" d="M118.32,113.83c0,.28-.06.45-.17.53a2.74,2.74,0,0,1-.49.29,48.06,48.06,0,0,1-19.73,4.49q-12.48,0-20.55-7.75T69.31,87.9q0-13.53,8.32-22.79t22.58-9.25h2.08c.57,0,1.21,0,1.92.08V36a.64.64,0,0,1,.24-.57.89.89,0,0,1,.49-.16h12.23a1,1,0,0,1,.62.12.64.64,0,0,1,.12.45v70.37C117.91,108.32,118,110.85,118.32,113.83Zm-14.11-7.58V68.17a10.58,10.58,0,0,0-4.49-.81,14.84,14.84,0,0,0-11.82,5.3Q83.34,78,83.33,87.25q0,10.6,4.53,15.21a14.81,14.81,0,0,0,11,4.61A17.26,17.26,0,0,0,104.21,106.25Z"/><path class="cls-2" d="M104.21,68.17v38.08a17.26,17.26,0,0,1-5.38.82,14.81,14.81,0,0,1-11-4.61q-4.53-4.6-4.53-15.21,0-9.28,4.57-14.59a14.84,14.84,0,0,1,11.82-5.3A10.58,10.58,0,0,1,104.21,68.17Z"/><path class="cls-1" d="M56.1,36.12v80.81a1.37,1.37,0,0,1-.16.82,1.32,1.32,0,0,1-.82.16H43.54a.86.86,0,0,1-1-1V36.21c0-.6.33-.9,1-.9H55.2Q56.1,35.24,56.1,36.12Z"/></g></g></svg>