<svg xmlns="http://www.w3.org/2000/svg" viewBox="0 0 160.72 156.73"><defs><style>.cls-1{fill:#37c5ff;}.cls-2{fill:#28253a;}</style></defs><g id="Layer_2" data-name="Layer 2"><g id="Layer_1-2" data-name="Layer 1"><path class="cls-1" d="M160.72,28.46v99.81a28.41,28.41,0,0,1-28.46,28.46H28.46a27.45,27.45,0,0,1-20.14-8.32A27.42,27.42,0,0,1,0,128.27V28.46A27.41,27.41,0,0,1,8.32,8.32,27.41,27.41,0,0,1,28.46,0h103.8A27.41,27.41,0,0,1,152.4,8.32,27.41,27.41,0,0,1,160.72,28.46ZM154,125.66V31a23.47,23.47,0,0,0-7.09-17.17,23.39,23.39,0,0,0-17.21-7.13H31a23.43,23.43,0,0,0-17.17,7.13A23.49,23.49,0,0,0,6.69,31.07v94.59a23.45,23.45,0,0,0,7.13,17.24A23.4,23.4,0,0,0,31,150h98.74a23.24,23.24,0,0,0,17.05-7A24.2,24.2,0,0,0,154,125.66Z"/><path class="cls-2" d="M154,31v94.67A24.2,24.2,0,0,1,146.78,143a23.24,23.24,0,0,1-17.05,7H31a23.4,23.4,0,0,1-17.17-7.14,23.45,23.45,0,0,1-7.13-17.24V31.07a23.49,23.49,0,0,1,7.13-17.25A23.43,23.43,0,0,1,31,6.69h98.66a23.39,23.39,0,0,1,17.21,7.13A23.47,23.47,0,0,1,154,31ZM124.19,97.53a15.86,15.86,0,0,0-3.14-9.75q-3.14-4.2-11.21-8.11c-3.64-1.85-6-3.35-7.06-4.49a5.15,5.15,0,0,1-1.59-3.5,5,5,0,0,1,1.64-3.47q1.62-1.67,5.7-1.67a23.14,23.14,0,0,1,12.15,3.18c.71,0,1.06-.22,1.06-.82V59.45a2.45,2.45,0,0,0-.12-.78,1.57,1.57,0,0,0-.53-.69q-3.51-1.87-12.56-1.88T94.39,61a16.38,16.38,0,0,0-1.76,21.61q3.27,4,10.77,7.55,5.13,2.61,6.89,4.56A5.83,5.83,0,0,1,112,98.42a4.89,4.89,0,0,1-1.88,3.92q-1.87,1.55-6,1.55a27.47,27.47,0,0,1-13.94-4.16c-.55-.27-.82-.08-.82.57v10.27a2.2,2.2,0,0,0,.08.65.77.77,0,0,0,.49.41q5.15,3.11,14.19,3.1,8.64,0,14.35-4.4T124.19,97.53ZM78.73,75.31q3.87-5.59,3.87-14.48a25,25,0,0,0-6.19-17.2q-6.21-7-20.63-7-10.37,0-17.94.33a2.45,2.45,0,0,0-1,.24c-.36.17-.53.39-.53.66v74.93c0,.6.24.85.73.74H47.7c.71,0,1-.25.82-.74V86c.92,0,1.68,0,2.28.08s1.79.08,3.26.08A38,38,0,0,0,68.37,83.5,22.58,22.58,0,0,0,78.73,75.31Z"/><path class="cls-1" d="M121.74,68.9c0,.6-.35.87-1.06.82a23.14,23.14,0,0,0-12.15-3.18q-4.08,0-5.7,1.67a5,5,0,0,0-1.64,3.47,5.15,5.15,0,0,0,1.59,3.5c1.06,1.14,3.42,2.64,7.06,4.49q8.07,3.92,11.21,8.11a15.86,15.86,0,0,1,3.14,9.75q0,8.4-5.71,12.8t-14.35,4.4q-9,0-14.19-3.1a.77.77,0,0,1-.49-.41,2.2,2.2,0,0,1-.08-.65V100.3c0-.65.27-.84.82-.57a27.47,27.47,0,0,0,13.94,4.16q4.16,0,6-1.55A4.89,4.89,0,0,0,112,98.42a5.83,5.83,0,0,0-1.75-3.75q-1.76-2-6.89-4.56-7.52-3.51-10.77-7.55A16.38,16.38,0,0,1,94.39,61q5-4.85,14.14-4.85T121.09,58a1.57,1.57,0,0,1,.53.69,2.45,2.45,0,0,1,.12.78Z"/><path class="cls-1" d="M82.6,60.83q0,8.9-3.87,14.48A22.58,22.58,0,0,1,68.37,83.5a38,38,0,0,1-14.31,2.61c-1.47,0-2.55,0-3.26-.08S49.44,86,48.52,86v26.82c.16.49-.11.74-.82.74H37c-.49.11-.73-.14-.73-.74V37.84c0-.27.17-.49.53-.66a2.45,2.45,0,0,1,1-.24q7.57-.33,17.94-.33,14.43,0,20.63,7A25,25,0,0,1,82.6,60.83Zm-12.47.25q0-6.69-3.92-10T55.29,47.7c-2.72,0-4.95.09-6.69.25V74.86c.81,0,1.62.08,2.4.08h3.31a21.83,21.83,0,0,0,11-2.77Q70.13,69.39,70.13,61.08Z"/><path class="cls-2" d="M66.21,51.05q3.92,3.35,3.92,10,0,8.31-4.85,11.09a21.83,21.83,0,0,1-11,2.77H51c-.78,0-1.59,0-2.4-.08V48c1.74-.16,4-.25,6.69-.25Q62.3,47.7,66.21,51.05Z"/></g></g></svg>