<svg xmlns="http://www.w3.org/2000/svg" viewBox="0 0 160.72 156.73"><defs><style>.cls-1{fill:#ff2bc2;}.cls-2{fill:#2e001e;}</style></defs><g id="Layer_2" data-name="Layer 2"><g id="Layer_1-2" data-name="Layer 1"><path class="cls-1" d="M132.26,0A27.41,27.41,0,0,1,152.4,8.32a27.41,27.41,0,0,1,8.32,20.14v99.81a28.41,28.41,0,0,1-28.46,28.46H28.46a27.47,27.47,0,0,1-20.15-8.32A27.45,27.45,0,0,1,0,128.27V28.46A27.44,27.44,0,0,1,8.31,8.32,27.43,27.43,0,0,1,28.46,0ZM154,125.66V31a23.51,23.51,0,0,0-7.09-17.17,23.39,23.39,0,0,0-17.21-7.13H31a23.41,23.41,0,0,0-17.16,7.13A23.5,23.5,0,0,0,6.68,31.07v94.59a23.46,23.46,0,0,0,7.14,17.24A23.38,23.38,0,0,0,31,150h98.75a23.2,23.2,0,0,0,17-7A24.17,24.17,0,0,0,154,125.66Z"/><path class="cls-2" d="M154,31v94.67A24.17,24.17,0,0,1,146.77,143a23.2,23.2,0,0,1-17,7H31a23.38,23.38,0,0,1-17.16-7.14,23.46,23.46,0,0,1-7.14-17.24V31.07a23.5,23.5,0,0,1,7.14-17.25A23.41,23.41,0,0,1,31,6.69h98.67a23.39,23.39,0,0,1,17.21,7.13A23.51,23.51,0,0,1,154,31Zm-24,77a2.63,2.63,0,0,0,0-.49c-.22-2.55-.33-4.73-.33-6.52V39.79a.49.49,0,0,0-.12-.36.74.74,0,0,0-.53-.13H118.15a.57.57,0,0,0-.41.17.7.7,0,0,0-.16.49V57.33c-.65-.06-1.22-.1-1.71-.13s-1.09,0-1.8,0q-12.39,0-19.44,8.07T87.57,85q0,13.69,7,20.42t17.89,6.73a41.66,41.66,0,0,0,17.13-3.91C129.78,108.15,129.91,108.07,129.94,108Zm-46.32,3.26a1,1,0,0,0-.12-.81L64.74,74.12,82.44,40.2c.27-.65.13-1-.41-1H71.18a1.1,1.1,0,0,0-.73.21A1.52,1.52,0,0,0,70,40v.08L66.7,47.29q-4.58,9.56-8.89,19.25h-.16q-4.49-9.87-9.14-19.49c-1.14-2.39-2.28-4.76-3.42-7.09-.06-.33-.16-.53-.33-.62a1.69,1.69,0,0,0-.73-.12H32.45a.63.63,0,0,0-.53.29.59.59,0,0,0,0,.69l17.7,35.06L31.39,110.49a.74.74,0,0,0-.16.65q.07.33.57.33H42.89a1.33,1.33,0,0,0,1.22-.73Q50.64,97,56.83,83.17h.08Q63.69,97.45,70,110.65a1.25,1.25,0,0,0,.49.7,1.77,1.77,0,0,0,.9.2H83.09A.51.51,0,0,0,83.62,111.22Z"/><path class="cls-1" d="M130,107.47a2.63,2.63,0,0,1,0,.49c0,.11-.16.19-.37.25a41.66,41.66,0,0,1-17.13,3.91q-10.92,0-17.89-6.73T87.57,85q0-11.65,7.06-19.74t19.44-8.07c.71,0,1.31,0,1.8,0s1.06.07,1.71.13V40a.7.7,0,0,1,.16-.49.57.57,0,0,1,.41-.17H129a.74.74,0,0,1,.53.13.49.49,0,0,1,.12.36V101C129.65,102.74,129.76,104.92,130,107.47ZM117.5,101l.08-33.11a9.85,9.85,0,0,0-3.91-.65Q99.56,68.26,99.56,84.4c0,6.19,1.28,10.63,3.83,13.29a12.61,12.61,0,0,0,9.46,4A14.61,14.61,0,0,0,117.5,101Z"/><path class="cls-2" d="M117.58,67.84,117.5,101a14.61,14.61,0,0,1-4.65.73,12.61,12.61,0,0,1-9.46-4c-2.55-2.66-3.83-7.1-3.83-13.29q0-16.16,14.11-17.21A9.85,9.85,0,0,1,117.58,67.84Z"/><path class="cls-1" d="M83.5,110.41a1,1,0,0,1,.12.81.51.51,0,0,1-.53.33H71.43a1.77,1.77,0,0,1-.9-.2,1.25,1.25,0,0,1-.49-.7q-6.36-13.2-13.13-27.48h-.08Q50.64,97,44.11,110.74a1.33,1.33,0,0,1-1.22.73H31.8q-.5,0-.57-.33a.74.74,0,0,1,.16-.65L49.66,75.26,32,40.2a.59.59,0,0,1,0-.69.63.63,0,0,1,.53-.29H44a1.69,1.69,0,0,1,.73.12c.17.09.27.29.33.62,1.14,2.33,2.28,4.7,3.42,7.09q4.65,9.63,9.14,19.49h.16q4.32-9.71,8.89-19.25L70,40.12V40a1.52,1.52,0,0,1,.41-.61,1.1,1.1,0,0,1,.73-.21H82c.54,0,.68.33.41,1L64.74,74.12Z"/></g></g></svg>