<?xml version="1.0" encoding="utf-8"?>
<!-- Generator: Adobe Illustrator 25.4.0, SVG Export Plug-In . SVG Version: 6.00 Build 0)  -->
<svg version="1.1" id="Layer_1" xmlns="http://www.w3.org/2000/svg" xmlns:xlink="http://www.w3.org/1999/xlink" x="0px" y="0px"
	 viewBox="0 0 74.7 32" style="enable-background:new 0 0 74.7 32;" xml:space="preserve">
<style type="text/css">
	.st0{fill:#092E20;}
	.st1{fill:#FFFFFF;}
</style>
<g>
	<path class="st0" d="M74.7,27.9c0,2.3-1.9,4.1-4.1,4.1H4.1C1.9,32,0,30.1,0,27.9V4.1C0,1.9,1.9,0,4.1,0h66.4c2.3,0,4.1,1.9,4.1,4.1
		V27.9z"/>
	<g>
		<g>
			<path class="st1" d="M12.9,5h3.5v16.4c-1.8,0.3-3.1,0.5-4.6,0.5c-4.3,0-6.6-2-6.6-5.7c0-3.6,2.4-5.9,6.1-5.9c0.6,0,1,0,1.5,0.2
				L12.9,5L12.9,5z M12.9,13.3c-0.4-0.1-0.8-0.2-1.2-0.2c-1.8,0-2.8,1.1-2.8,3c0,1.9,1,2.9,2.8,2.9c0.4,0,0.7,0,1.2-0.1
				C12.9,18.9,12.9,13.3,12.9,13.3z"/>
			<path class="st1" d="M22,10.5v8.2c0,2.8-0.2,4.2-0.8,5.4c-0.6,1.1-1.3,1.8-2.9,2.6L15,25.1c1.6-0.7,2.3-1.4,2.8-2.4
				c0.5-1,0.7-2.2,0.7-5.3v-7H22z M18.5,5H22v3.6h-3.5V5z"/>
			<path class="st1" d="M24.2,11.3c1.6-0.7,3.1-1.1,4.7-1.1c1.8,0,3,0.5,3.5,1.4c0.3,0.5,0.4,1.2,0.4,2.7v7.2
				c-1.6,0.2-3.6,0.4-5.1,0.4c-3,0-4.3-1-4.3-3.3c0-2.5,1.8-3.6,6.1-4v-0.8c0-0.6-0.3-0.9-1.2-0.9c-1.3,0-2.8,0.4-4.2,1.1L24.2,11.3
				L24.2,11.3z M29.7,16.9c-2.3,0.2-3.1,0.6-3.1,1.5c0,0.7,0.4,1,1.4,1c0.5,0,1,0,1.7-0.2L29.7,16.9L29.7,16.9z"/>
			<path class="st1" d="M34.5,11c2.1-0.6,3.8-0.8,5.6-0.8c1.8,0,3.1,0.4,3.9,1.2c0.7,0.8,1,1.6,1,3.4v6.9h-3.5v-6.8
				c0-1.4-0.5-1.9-1.7-1.9c-0.5,0-0.9,0-1.6,0.3v8.4h-3.5L34.5,11L34.5,11z"/>
			<path class="st1" d="M46.3,23.7c1.2,0.6,2.5,0.9,3.8,0.9c2.3,0,3.3-0.9,3.3-3.2c0,0,0,0,0-0.1c-0.7,0.3-1.4,0.5-2.3,0.5
				c-3.1,0-5.1-2-5.1-5.3c0-4,2.9-6.3,8.1-6.3c1.5,0,2.9,0.2,4.6,0.5l-1.2,2.6c-0.9-0.2-0.1,0-0.8-0.1v0.4l0,1.5l0,1.9
				c0,0.5,0,1,0,1.4c0,0.4,0,0.6,0,1c0,3-0.3,4.5-1,5.6c-1.1,1.7-3,2.6-5.7,2.6c-1.4,0-2.6-0.2-3.8-0.7L46.3,23.7L46.3,23.7z
				 M53.3,13.1c0,0-0.1,0-0.1,0H53c-0.7,0-1.5,0.2-2,0.5c-0.8,0.5-1.3,1.4-1.3,2.6c0,1.8,0.9,2.8,2.4,2.8c0.5,0,0.9-0.1,1.3-0.2
				v-0.3v-1c0-0.4,0-0.9,0-1.4l0-1.6l0-1.2L53.3,13.1L53.3,13.1z"/>
			<path class="st1" d="M64.2,10.2c3.5,0,5.7,2.2,5.7,5.8c0,3.7-2.3,6-5.8,6c-3.5,0-5.7-2.2-5.7-5.8C58.4,12.5,60.6,10.2,64.2,10.2z
				 M64.2,19.2c1.4,0,2.2-1.1,2.2-3.1c0-1.9-0.8-3.1-2.1-3.1c-1.4,0-2.2,1.1-2.2,3.1C62,18.1,62.8,19.2,64.2,19.2z"/>
		</g>
	</g>
</g>
</svg>
