<svg xmlns="http://www.w3.org/2000/svg" viewBox="0 0 430.01 95.96"><g id="Layer_2" data-name="Layer 2"><g id="Layer_1-2" data-name="Layer 1"><path d="M133.37,96V1.88h5.1v14.8a21,21,0,0,0,1.67-2.09A25.29,25.29,0,0,1,163.2.28c11.64-.35,21.09,4,26.65,14.31A46,46,0,0,1,191,56.76C185.78,68.37,173,74.14,159.31,72a25.6,25.6,0,0,1-20.43-13.48V96Zm5.1-60.8,1.14,11c2,12.58,9.45,20,21.13,21.4A24,24,0,0,0,187.1,52.35a40.93,40.93,0,0,0-.89-33.63A23.53,23.53,0,0,0,161.43,5,22.92,22.92,0,0,0,141,22a118.52,118.52,0,0,0-2.5,13.2ZM299.72,47.94a27.52,27.52,0,0,1-26.89,24.32c-21.4,1.08-31.45-13.13-33-29.53A47.26,47.26,0,0,1,244,16.67,29.06,29.06,0,0,1,274.21.45a27.79,27.79,0,0,1,24.67,21.16,142.12,142.12,0,0,1,2.4,15.63H245.07c-1,14.87,7,26.82,18.28,29.71,14.1,3.47,26.16-2.64,30.53-16.06,1-3.44,2.75-3.92,5.87-3ZM245,32.48H295.3C295,16.64,285.13,5.13,271.75,5,256.64,4.76,245.69,15.81,245,32.48Zm65.08,15.81H315a19.75,19.75,0,0,0,11.61,17A30.29,30.29,0,0,0,353,64.62,11.85,11.85,0,0,0,359.92,53a10.75,10.75,0,0,0-7.23-10.74c-5.42-2-11.18-3.12-16.7-4.9a122.56,122.56,0,0,1-16.82-6.14c-8.9-4.35-9.45-21.26.62-26.62a35.46,35.46,0,0,1,33.91-.52,17.85,17.85,0,0,1,9,18.2h-4.23c0-.2-.38-.38-.38-.59-.52-13.47-11.85-17.68-24-16.5A30.8,30.8,0,0,0,323.7,8.33a10.41,10.41,0,0,0-6,10.42,10.4,10.4,0,0,0,6.95,9.8c5.3,1.95,10.94,3.2,16.43,4.72l13.27,3.47a15.71,15.71,0,0,1,10.77,14.15,16.73,16.73,0,0,1-9,17.37c-11.6,6.56-30.71,4.83-39.22-3.47a23.14,23.14,0,0,1-6.74-16.5Zm117.49-26H423a10.12,10.12,0,0,0-.32-1.7,15.09,15.09,0,0,0-12.3-14.52A30.29,30.29,0,0,0,390.87,7a11.86,11.86,0,0,0-8.58,11.3,10.89,10.89,0,0,0,8.34,11l21.12,5.43a59.36,59.36,0,0,1,6.74,2,17.36,17.36,0,0,1,.89,32.35,38.63,38.63,0,0,1-31.26.31,21.68,21.68,0,0,1-13.07-21h4.52a25.32,25.32,0,0,0,38.56,16.12,12.4,12.4,0,0,0,6.67-11.6,10.73,10.73,0,0,0-7.33-10.67c-5.42-2-11.19-3.09-16.71-4.9a124,124,0,0,1-16.92-6.07c-8.68-4.28-9.38-21.06.53-26.41a35,35,0,0,1,34.46-.38,18.17,18.17,0,0,1,8.72,17.82ZM125,70.56a8,8,0,0,1-9.87-3.75L97.14,42l-2.6-3.47L73.69,66.85a7.63,7.63,0,0,1-9.38,3.68l26.85-36L66.18,2a8.3,8.3,0,0,1,9.9,3.47L94.7,30.57l18.72-25A7.47,7.47,0,0,1,122.73,2L113,14.91,99.9,32a3.48,3.48,0,0,0-.27,4.9,3.57,3.57,0,0,0,.27.28l25,33.38Zm114-69V6.5A25.19,25.19,0,0,0,212.21,30a23.73,23.73,0,0,0,0,2.53V70.74h-5V1.91h4.9V16c6-10.28,15.29-14.1,26.92-14.38ZM0,34.05,2.2,23.25C8.21,1.88,32.7-7,49.55,6.22,59.42,14,61.88,25,61.4,37.32H5.81c-.9,22.09,15,35.44,35.43,28.63A21.26,21.26,0,0,0,54.69,51c1.08-3.47,2.86-4.06,6.11-3.06a28.2,28.2,0,0,1-13.48,20.6,32.65,32.65,0,0,1-38-4.86A34.29,34.29,0,0,1,.73,43.57,13.52,13.52,0,0,0,0,40.1Q0,37,0,34.05Zm5.87-1.49H56.15c-.32-16-10.42-27.38-23.9-27.48C17.24,4.87,6.5,16,5.84,32.49Z"/></g></g></svg>