<?xml version="1.0" encoding="utf-8"?>
<!-- Generator: Adobe Illustrator 25.4.0, SVG Export Plug-In . SVG Version: 6.00 Build 0)  -->
<svg version="1.1" id="Layer_1" xmlns="http://www.w3.org/2000/svg" xmlns:xlink="http://www.w3.org/1999/xlink" x="0px" y="0px"
	 viewBox="0 0 143.4 32" style="enable-background:new 0 0 143.4 32;" xml:space="preserve">
<g id="Layer_2_00000170236724405652225000000010311531822970288031_">
	<g id="Layer_1-2">
		<path d="M44.5,32V0.6h1.7v4.9c0.2-0.2,0.4-0.5,0.6-0.7c1.4-2.9,4.4-4.8,7.7-4.8c3.9-0.1,7,1.3,8.9,4.8c2.4,4.3,2.5,9.6,0.4,14.1
			c-1.7,3.9-6,5.8-10.6,5.1c-2.9-0.2-5.4-1.9-6.8-4.5V32H44.5z M46.2,11.8l0.4,3.7c0.7,4.2,3.2,6.7,7,7.1c3.8,0.6,7.4-1.5,8.8-5.1
			c1.5-3.6,1.4-7.7-0.3-11.2c-1.4-3.2-4.8-5.1-8.3-4.6c-3.2,0.2-6,2.5-6.8,5.7C46.7,8.8,46.4,10.3,46.2,11.8L46.2,11.8z M99.9,16
			c-0.5,4.6-4.4,8-9,8.1c-7.1,0.4-10.5-4.4-11-9.8c-0.4-3,0.1-6,1.4-8.7c1.8-3.8,5.9-6,10.1-5.4c4,0.3,7.3,3.2,8.2,7.1
			c0.4,1.7,0.6,3.5,0.8,5.2H81.7c-0.3,5,2.3,8.9,6.1,9.9c4.7,1.2,8.7-0.9,10.2-5.4C98.3,15.8,98.9,15.7,99.9,16L99.9,16z M81.7,10.8
			h16.8c-0.1-5.3-3.4-9.1-7.9-9.2C85.6,1.6,81.9,5.3,81.7,10.8z M103.4,16.1h1.6c0.1,2.5,1.6,4.7,3.9,5.7c2.8,1.3,6.1,1.2,8.8-0.2
			c1.5-0.7,2.4-2.2,2.3-3.9c0.1-1.6-0.9-3.1-2.4-3.6c-1.8-0.7-3.7-1-5.6-1.6c-1.9-0.5-3.8-1.2-5.6-2c-3-1.5-3.2-7.1,0.2-8.9
			c3.5-2,7.8-2,11.3-0.2c2.2,1.2,3.4,3.6,3,6.1h-1.4c0-0.1-0.1-0.1-0.1-0.2c-0.2-4.5-4-5.9-8-5.5c-1.2,0.1-2.4,0.5-3.5,1
			c-1.3,0.6-2.1,2-2,3.5c0,1.5,0.9,2.8,2.3,3.3c1.8,0.7,3.6,1.1,5.5,1.6l4.4,1.2c2.1,0.7,3.5,2.6,3.6,4.7c0.4,2.4-0.9,4.7-3,5.8
			c-3.9,2.2-10.2,1.6-13.1-1.2C104.2,20.2,103.4,18.2,103.4,16.1L103.4,16.1z M142.6,7.5H141c0-0.2-0.1-0.4-0.1-0.6
			c0-2.4-1.8-4.4-4.1-4.8c-2.1-0.6-4.4-0.5-6.5,0.3c-1.7,0.5-2.8,2-2.9,3.8c-0.1,1.7,1.1,3.3,2.8,3.7l7,1.8c0.8,0.2,1.5,0.4,2.2,0.7
			c3,1.1,4.6,4.4,3.5,7.4c-0.5,1.5-1.7,2.8-3.2,3.4c-3.3,1.5-7.1,1.5-10.4,0.1c-2.8-1.2-4.5-4-4.4-7h1.5c0.9,4.6,5.4,7.5,10,6.6
			c1-0.2,2-0.6,2.9-1.2c1.4-0.7,2.3-2.3,2.2-3.9c0.1-1.6-0.9-3.1-2.4-3.6c-1.8-0.7-3.7-1-5.6-1.6c-1.9-0.5-3.8-1.2-5.6-2
			c-2.9-1.4-3.1-7,0.2-8.8c3.5-2.1,7.9-2.1,11.5-0.1C141.7,2.7,142.8,5.1,142.6,7.5L142.6,7.5z M41.7,23.5c-1.3,0.5-2.7-0.1-3.3-1.3
			l-6-8.3l-0.9-1.2l-7,9.4c-0.6,1.1-1.9,1.7-3.1,1.2l9-12L22.1,0.7c1.2-0.4,2.6,0,3.3,1.2l6.2,8.4l6.2-8.3c0.6-1.1,1.9-1.6,3.1-1.2
			L37.7,5l-4.4,5.7c-0.5,0.4-0.5,1.2-0.1,1.6c0,0,0.1,0.1,0.1,0.1L41.7,23.5L41.7,23.5z M79.7,0.5v1.6c-4.6-0.3-8.6,3.2-8.9,7.8
			c0,0,0,0,0,0c0,0.3,0,0.6,0,0.8v12.7h-1.7V0.7h1.6v4.7C72.7,1.9,75.8,0.7,79.7,0.5L79.7,0.5z M0,11.4l0.7-3.6
			c2-7.1,10.2-10.1,15.8-5.7c3.3,2.6,4.1,6.3,4,10.4H2C1.7,19.8,7,24.3,13.8,22c2.2-0.8,3.9-2.7,4.5-5c0.4-1.2,1-1.4,2-1
			c-0.4,2.9-2,5.4-4.5,6.9c-4.1,2.3-9.2,1.6-12.7-1.6c-1.7-1.9-2.7-4.2-2.9-6.7c0-0.4-0.1-0.8-0.2-1.2C0,12.7,0,12,0,11.4z M2,10.9
			h16.8c-0.1-5.3-3.5-9.1-8-9.2C5.8,1.6,2.2,5.4,2,10.9L2,10.9z"/>
	</g>
</g>
</svg>
