<svg xmlns="http://www.w3.org/2000/svg" viewBox="0 0 317.39 89.62"><defs><style>.cls-1{fill:#83cd29;}.cls-2{fill:#404137;}</style></defs><g id="Layer_2" data-name="Layer 2"><g id="Layer_1-2" data-name="Layer 1"><path class="cls-1" d="M292,31.8a4.36,4.36,0,0,0-2.19.54l-21,12.15a4.44,4.44,0,0,0-2.19,3.84V72.59a4.42,4.42,0,0,0,2.19,3.84l5.49,3.17c2.67,1.32,3.66,1.3,4.87,1.3,4,0,6.21-2.4,6.21-6.57V50.4a.6.6,0,0,0-.62-.59H282a.61.61,0,0,0-.63.59V74.34c0,1.85-1.92,3.71-5,2.15l-5.72-3.35a.64.64,0,0,1-.35-.54V48.34a.71.71,0,0,1,.35-.58l21-12.11a.64.64,0,0,1,.63,0l21,12.11a.7.7,0,0,1,.35.58V72.6a.66.66,0,0,1-.31.58l-21,12.11a.64.64,0,0,1-.63,0l-5.4-3.22a.6.6,0,0,0-.54,0,13.45,13.45,0,0,1-3.17,1.43c-.35.12-.87.31.18.9l7.06,4.16a4.43,4.43,0,0,0,2.19.58,4.32,4.32,0,0,0,2.19-.58l21-12.11a4.45,4.45,0,0,0,2.19-3.84V48.35a4.45,4.45,0,0,0-2.19-3.85l-21-12.15a4.46,4.46,0,0,0-2.19-.53Zm5.63,17.34c-6,0-9.56,2.55-9.56,6.79,0,4.59,3.54,5.86,9.29,6.43,6.88.68,7.42,1.69,7.42,3,0,2.35-1.88,3.35-6.3,3.35-5.56,0-6.79-1.39-7.2-4.16a.59.59,0,0,0-.58-.54h-2.73a.64.64,0,0,0-.62.63c0,3.54,1.92,7.73,11.12,7.73,6.66,0,10.5-2.61,10.5-7.19s-3.1-5.76-9.56-6.62-7.15-1.28-7.15-2.81c0-1.26.53-2.95,5.36-2.95,4.32,0,5.92.93,6.57,3.84a.63.63,0,0,0,.58.5h2.73a.68.68,0,0,0,.45-.23.6.6,0,0,0,.18-.44c-.42-5-3.77-7.37-10.5-7.37Z"/><path class="cls-2" d="M168.25,0a1.29,1.29,0,0,0-.67.18,1.35,1.35,0,0,0-.67,1.16V35.52a.91.91,0,0,1-.45.8.93.93,0,0,1-.94,0l-5.58-3.21a2.67,2.67,0,0,0-2.68,0L135,46a2.74,2.74,0,0,0-1.34,2.37V74.07A2.67,2.67,0,0,0,135,76.4l22.29,12.86a2.67,2.67,0,0,0,2.68,0L182.23,76.4a2.67,2.67,0,0,0,1.34-2.33V9.92a2.73,2.73,0,0,0-1.38-2.37L168.92.13a1.41,1.41,0,0,0-.67-.13ZM24.84,32.12a2.46,2.46,0,0,0-1.21.32L1.34,45.3A2.69,2.69,0,0,0,0,47.63L.05,82.16a1.3,1.3,0,0,0,.67,1.16,1.29,1.29,0,0,0,1.34,0l13.22-7.59a2.73,2.73,0,0,0,1.38-2.33V57.28A2.67,2.67,0,0,1,18,55l5.63-3.26A2.69,2.69,0,0,1,25,51.33a2.74,2.74,0,0,1,1.34.36L31.94,55a2.65,2.65,0,0,1,1.34,2.32V73.4a2.74,2.74,0,0,0,1.39,2.32l13.22,7.6a1.29,1.29,0,0,0,1.34,0,1.35,1.35,0,0,0,.67-1.16L50,47.62a2.68,2.68,0,0,0-1.34-2.32L26.31,32.44a2.4,2.4,0,0,0-1.2-.32Zm200.33.32a2.61,2.61,0,0,0-1.34.35l-22.3,12.87A2.68,2.68,0,0,0,200.19,48V73.72A2.7,2.7,0,0,0,201.58,76l22.11,12.6a2.7,2.7,0,0,0,2.64,0l13.4-7.46a1.35,1.35,0,0,0,.71-1.17,1.31,1.31,0,0,0-.67-1.16L217.35,66a1.46,1.46,0,0,1-.72-1.21v-8a1.38,1.38,0,0,1,.72-1.16l7-4a1.36,1.36,0,0,1,1.35,0l7,4a1.35,1.35,0,0,1,.67,1.16v6.35a1.34,1.34,0,0,0,2,1.16l13.36-7.77A2.7,2.7,0,0,0,250,54.19V48a2.69,2.69,0,0,0-1.34-2.32L226.51,32.79a2.73,2.73,0,0,0-1.34-.35ZM158.51,51.65a.77.77,0,0,1,.36.09l7.64,4.42a.7.7,0,0,1,.35.58v8.85a.68.68,0,0,1-.35.58l-7.64,4.42a.67.67,0,0,1-.67,0l-7.64-4.42a.7.7,0,0,1-.36-.58V56.74a.69.69,0,0,1,.36-.58l7.64-4.42a.56.56,0,0,1,.31-.09Z"/><path class="cls-1" d="M91.81,32.3a2.64,2.64,0,0,0-1.34.36L68.17,45.48a2.76,2.76,0,0,0-1.34,2.37V73.58a2.66,2.66,0,0,0,1.34,2.32l22.3,12.87a2.67,2.67,0,0,0,2.68,0L115.44,75.9a2.66,2.66,0,0,0,1.34-2.32V47.85a2.74,2.74,0,0,0-1.34-2.37L93.15,32.66a2.64,2.64,0,0,0-1.34-.36Zm133.31,23a.57.57,0,0,0-.26,0l-4.29,2.5a.5.5,0,0,0-.27.45v4.91a.52.52,0,0,0,.27.45l4.29,2.46a.48.48,0,0,0,.49,0l4.28-2.46a.52.52,0,0,0,.27-.45V58.26a.52.52,0,0,0-.27-.45l-4.28-2.5a.37.37,0,0,0-.23-.05Z"/></g></g></svg>