<?xml version="1.0" encoding="utf-8"?>
<!-- Generator: Adobe Illustrator 25.4.0, SVG Export Plug-In . SVG Version: 6.00 Build 0)  -->
<svg version="1.1" id="Layer_1" xmlns="http://www.w3.org/2000/svg" xmlns:xlink="http://www.w3.org/1999/xlink" x="0px" y="0px"
	 viewBox="0 0 113.3 32" style="enable-background:new 0 0 113.3 32;" xml:space="preserve">
<style type="text/css">
	.st0{fill:#83CD29;}
	.st1{fill:#404137;}
</style>
<g id="Layer_2_00000172399739515929898650000014945595205174883714_">
	<g id="Layer_1-2">
		<path class="st0" d="M104.3,11.4c-0.3,0-0.5,0.1-0.8,0.2L96,15.9c-0.5,0.3-0.8,0.8-0.8,1.4v8.7c0,0.6,0.3,1.1,0.8,1.4l2,1.1
			c1,0.5,1.3,0.5,1.7,0.5c1.4,0,2.2-0.9,2.2-2.3V18c0-0.1-0.1-0.2-0.2-0.2c0,0,0,0,0,0h-1c-0.1,0-0.2,0.1-0.2,0.2c0,0,0,0,0,0v8.5
			c0,0.7-0.7,1.3-1.8,0.8l-2-1.2c-0.1,0-0.1-0.1-0.1-0.2v-8.7c0-0.1,0.1-0.2,0.1-0.2l7.5-4.3c0.1,0,0.2,0,0.2,0l7.5,4.3
			c0.1,0,0.1,0.1,0.1,0.2v8.7c0,0.1,0,0.2-0.1,0.2l-7.5,4.3c-0.1,0-0.2,0-0.2,0l-1.9-1.1c-0.1,0-0.1,0-0.2,0
			c-0.4,0.2-0.7,0.4-1.1,0.5c-0.1,0-0.3,0.1,0.1,0.3l2.5,1.5c0.2,0.1,0.5,0.2,0.8,0.2c0.3,0,0.5-0.1,0.8-0.2l7.5-4.3
			c0.5-0.3,0.8-0.8,0.8-1.4v-8.7c0-0.6-0.3-1.1-0.8-1.4l-7.5-4.3C104.8,11.4,104.5,11.4,104.3,11.4L104.3,11.4z M106.3,17.5
			c-2.1,0-3.4,0.9-3.4,2.4c0,1.6,1.3,2.1,3.3,2.3c2.5,0.2,2.6,0.6,2.6,1.1c0,0.8-0.7,1.2-2.2,1.2c-2,0-2.4-0.5-2.6-1.5
			c0-0.1-0.1-0.2-0.2-0.2h-1c-0.1,0-0.2,0.1-0.2,0.2c0,1.3,0.7,2.8,4,2.8c2.4,0,3.7-0.9,3.7-2.6s-1.1-2.1-3.4-2.4
			c-2.3-0.3-2.6-0.5-2.6-1c0-0.4,0.2-1.1,1.9-1.1c1.5,0,2.1,0.3,2.3,1.4c0,0.1,0.1,0.2,0.2,0.2h1c0.1,0,0.1,0,0.2-0.1
			c0,0,0.1-0.1,0.1-0.2C109.9,18.4,108.7,17.5,106.3,17.5L106.3,17.5z"/>
		<path class="st1" d="M60.1,0c-0.1,0-0.2,0-0.2,0.1c-0.1,0.1-0.2,0.2-0.2,0.4v12.2c0,0.1-0.1,0.2-0.2,0.3c-0.1,0.1-0.2,0.1-0.3,0
			l-2-1.1c-0.3-0.2-0.7-0.2-1,0l-7.9,4.6c-0.3,0.2-0.5,0.5-0.5,0.8v9.2c0,0.3,0.2,0.7,0.5,0.8l8,4.6c0.3,0.2,0.7,0.2,1,0l7.9-4.6
			c0.3-0.2,0.5-0.5,0.5-0.8V3.5c0-0.4-0.2-0.7-0.5-0.8L60.3,0C60.2,0,60.2,0,60.1,0z M8.9,11.5c-0.2,0-0.3,0-0.4,0.1l-8,4.6
			C0.2,16.3,0,16.7,0,17l0,12.3c0,0.2,0.1,0.3,0.2,0.4c0.1,0.1,0.3,0.1,0.5,0L5.5,27c0.3-0.2,0.5-0.5,0.5-0.8v-5.8
			c0-0.3,0.2-0.6,0.5-0.8l2-1.2c0.1-0.1,0.3-0.1,0.5-0.1c0.2,0,0.3,0,0.5,0.1l2,1.2c0.3,0.2,0.5,0.5,0.5,0.8v5.7
			c0,0.3,0.2,0.7,0.5,0.8l4.7,2.7c0.1,0.1,0.3,0.1,0.5,0c0.1-0.1,0.2-0.2,0.2-0.4l0-12.3c0-0.3-0.2-0.7-0.5-0.8l-8-4.6
			C9.3,11.5,9.1,11.5,8.9,11.5L8.9,11.5z M80.4,11.6c-0.2,0-0.3,0-0.5,0.1l-8,4.6c-0.3,0.2-0.5,0.5-0.5,0.8v9.2
			c0,0.3,0.2,0.6,0.5,0.8l7.9,4.5c0.3,0.2,0.6,0.2,0.9,0l4.8-2.7c0.2-0.1,0.3-0.2,0.3-0.4c0-0.2-0.1-0.3-0.2-0.4l-8-4.6
			c-0.2-0.1-0.3-0.3-0.3-0.4v-2.9c0-0.2,0.1-0.3,0.3-0.4l2.5-1.4c0.1-0.1,0.3-0.1,0.5,0l2.5,1.4c0.1,0.1,0.2,0.2,0.2,0.4v2.3
			c0,0.3,0.2,0.5,0.5,0.5c0.1,0,0.2,0,0.2-0.1l4.8-2.8c0.3-0.2,0.5-0.5,0.5-0.8v-2.2c0-0.3-0.2-0.7-0.5-0.8l-7.9-4.6
			C80.7,11.6,80.6,11.6,80.4,11.6z M56.6,18.4c0,0,0.1,0,0.1,0l2.7,1.6c0.1,0,0.1,0.1,0.1,0.2v3.2c0,0.1,0,0.2-0.1,0.2l-2.7,1.6
			c-0.1,0-0.2,0-0.2,0l-2.7-1.6c-0.1,0-0.1-0.1-0.1-0.2v-3.2c0-0.1,0.1-0.2,0.1-0.2l2.7-1.6C56.5,18.5,56.6,18.4,56.6,18.4z"/>
		<path class="st0" d="M32.8,11.5c-0.2,0-0.3,0-0.5,0.1l-8,4.6c-0.3,0.2-0.5,0.5-0.5,0.8v9.2c0,0.3,0.2,0.7,0.5,0.8l8,4.6
			c0.3,0.2,0.7,0.2,1,0l8-4.6c0.3-0.2,0.5-0.5,0.5-0.8v-9.2c0-0.3-0.2-0.7-0.5-0.8l-8-4.6C33.1,11.6,33,11.5,32.8,11.5z M80.4,19.7
			C80.4,19.7,80.3,19.7,80.4,19.7l-1.6,0.9c-0.1,0-0.1,0.1-0.1,0.2v1.8c0,0.1,0,0.1,0.1,0.2l1.5,0.9c0.1,0,0.1,0,0.2,0l1.5-0.9
			c0.1,0,0.1-0.1,0.1-0.2v-1.7c0-0.1,0-0.1-0.1-0.2L80.4,19.7C80.4,19.7,80.4,19.7,80.4,19.7L80.4,19.7z"/>
	</g>
</g>
</svg>
