<?xml version="1.0" encoding="utf-8"?>
<!-- Generator: Adobe Illustrator 25.4.0, SVG Export Plug-In . SVG Version: 6.00 Build 0)  -->
<svg version="1.1" id="Layer_1" xmlns="http://www.w3.org/2000/svg" xmlns:xlink="http://www.w3.org/1999/xlink" x="0px" y="0px"
	 viewBox="0 0 2431.3 735.9" style="enable-background:new 0 0 2431.3 735.9;" xml:space="preserve">
<style type="text/css">
	.st0{fill:#53C1DE;}
	.st1{fill:#FFFFFF;}
</style>
<g>
	<path class="st0" d="M557.8,734.9c-44,0-94.5-22.8-146.5-65.9c-50.5,42.3-103.4,65.4-149.8,65.4c0,0,0,0,0,0
		c-21.6,0-41.2-5-58.3-14.8c-26.9-15.5-45.7-43.5-54.3-81c-7.6-33-7.4-73.6,0.6-118.1c-43.4-15.8-79.8-37.4-105.8-62.6
		C15,429.9-0.2,398.2-0.2,366.1c0-58.4,55.8-113.3,149.7-148c-17.6-99.1,1.6-172.6,53.1-202.4c17.3-10,36.8-15.1,57.8-15.1
		c45.1,0,96.2,23.4,148.2,67.8C461.9,23.6,513.5,0,558,0c19.3,0,36.9,4.5,52.3,13.4c28.6,16.5,47.8,44.1,56.9,81.9
		c8.3,34.3,8,75.8-0.9,123.5c94.5,34.4,148.5,87.8,148.5,147.3c0,62.4-51.4,113.2-148.7,147.1c17.9,100-2.5,177.4-55.2,207.9
		C595.3,730.2,577.4,734.9,557.8,734.9z"/>
	<path class="st0" d="M9.8,366.1c0,60,58.6,116.1,151.1,147.7c-18.5,92.9-3.3,167.8,47.3,197c52,30,129.5,9.2,203.1-55.1
		c71.7,61.7,144.2,86,194.7,56.7c52-30.1,67.8-110.1,48.8-205.9C751,474.8,804.9,427,804.9,366.1c0-58.7-58.7-109.4-149.9-140.8
		c20.4-99.8,3.1-172.9-49.6-203.3c-50.8-29.3-124.1-3.8-196.9,59.5C332.8,14.4,260.3-6.1,207.6,24.4
		c-50.8,29.4-65.2,105.7-46.7,200.3C71.6,255.8,9.8,307.7,9.8,366.1z"/>
	<path class="st1" d="M9.8,366.1c0,60,58.6,116.1,151.1,147.7c-18.5,92.9-3.3,167.8,47.3,197c52,30,129.5,9.2,203.1-55.1
		c71.7,61.7,144.2,86,194.7,56.7c52-30.1,67.8-110.1,48.8-205.9C751,474.8,804.9,427,804.9,366.1c0-58.7-58.7-109.4-149.9-140.8
		c20.4-99.8,3.1-172.9-49.6-203.3c-50.8-29.3-124.1-3.8-196.9,59.5C332.8,14.4,260.3-6.1,207.6,24.4
		c-50.8,29.4-65.2,105.7-46.7,200.3C71.6,255.8,9.8,307.7,9.8,366.1z"/>
	<path class="st0" d="M635.7,256.5c-7.5-2.6-15.1-5-22.7-7.2c1.3-5.1,2.4-10.3,3.5-15.5c17.2-83.5,6-150.8-32.5-173
		c-36.8-21.2-97.1,0.9-157.9,53.9c-6,5.2-11.9,10.6-17.6,16.1c-3.8-3.7-7.7-7.3-11.7-10.8C333,63.5,269.1,39.6,230.7,61.8
		c-36.8,21.3-47.7,84.6-32.2,163.7c1.5,7.8,3.3,15.6,5.2,23.4c-9,2.6-17.8,5.3-26.1,8.2c-74.8,26.1-122.5,66.9-122.5,109.3
		c0,43.8,51.2,87.7,129.1,114.3c6.3,2.1,12.7,4.1,19.1,6c-2.1,8.3-3.9,16.8-5.5,25.2c-14.8,77.8-3.2,139.5,33.5,160.7
		c37.9,21.9,101.5-0.6,163.5-54.8c4.9-4.3,9.8-8.8,14.7-13.6c6.2,6,12.6,11.8,19.1,17.4c60,51.6,119.3,72.5,156,51.3
		c37.9-21.9,50.2-88.3,34.2-169c-1.2-6.2-2.6-12.5-4.2-18.9c4.5-1.3,8.9-2.7,13.1-4.1c81-26.8,133.6-70.2,133.6-114.5
		C761.2,323.9,711.9,282.8,635.7,256.5L635.7,256.5z"/>
	<path class="st1" d="M618.1,452.3c-3.9,1.3-7.8,2.5-11.9,3.7c-8.9-28.3-21-58.4-35.8-89.5c14.1-30.3,25.7-60,34.4-88.1
		c7.2,2.1,14.2,4.3,21,6.6c65.3,22.5,105.2,55.8,105.2,81.4C731,393.7,688,429.2,618.1,452.3L618.1,452.3z M589.1,509.8
		c7.1,35.7,8.1,68,3.4,93.2c-4.2,22.7-12.7,37.8-23.1,43.8c-22.3,12.9-69.8-3.9-121.2-48c-5.9-5.1-11.8-10.5-17.8-16.2
		c19.9-21.8,39.8-47.1,59.2-75.2c34.1-3,66.4-8,95.6-14.7C586.7,498.5,588,504.2,589.1,509.8L589.1,509.8z M295.8,644.6
		c-21.7,7.7-39.1,7.9-49.5,1.9c-22.3-12.8-31.5-62.4-18.9-129c1.5-7.9,3.2-15.7,5.2-23.4c28.9,6.4,60.9,11,95.2,13.8
		c19.5,27.5,40,52.8,60.6,74.9c-4.4,4.2-8.9,8.4-13.5,12.4C347.5,619.1,320,636,295.8,644.6L295.8,644.6z M194,452.2
		c-34.4-11.8-62.9-27.1-82.4-43.8c-17.5-15-26.4-29.9-26.4-42c0-25.7,38.3-58.5,102.3-80.8c8-2.8,16.1-5.3,24.3-7.6
		c8.8,28.7,20.4,58.8,34.4,89.2c-14.2,30.8-25.9,61.4-34.8,90.4C205.5,455.9,199.7,454.1,194,452.2z M228.1,219.7
		c-13.3-67.8-4.5-119,17.7-131.8c23.6-13.7,75.9,5.8,130.9,54.7c3.5,3.1,7.1,6.4,10.6,9.8c-20.5,22-40.8,47.1-60.1,74.4
		c-33.2,3.1-65,8-94.2,14.6C231.2,234.3,229.5,227,228.1,219.7L228.1,219.7z M532.7,295c-6.9-11.9-14.1-23.7-21.5-35.3
		c22.5,2.8,44.1,6.6,64.4,11.3c-6.1,19.5-13.7,39.9-22.6,60.8C546.5,319.3,539.7,307.1,532.7,295L532.7,295z M408.5,174
		c13.9,15.1,27.8,31.9,41.6,50.2c-27.8-1.3-55.7-1.3-83.5,0C380.3,206,394.3,189.2,408.5,174L408.5,174z M283.5,295.2
		c-6.9,12-13.6,24.2-19.9,36.5c-8.8-20.8-16.3-41.3-22.4-61.1c20.1-4.5,41.6-8.2,64-11C297.6,271.3,290.4,283.1,283.5,295.2z
		 M305.8,475.4c-23.1-2.6-44.9-6.1-65.1-10.5c6.2-20.1,13.9-41.1,22.9-62.3c6.4,12.3,13.1,24.5,20,36.5
		C290.7,451.4,298.1,463.5,305.8,475.4z M409.3,561c-14.3-15.4-28.6-32.5-42.5-50.8c13.5,0.5,27.3,0.8,41.3,0.8
		c14.4,0,28.6-0.3,42.6-0.9C437,528.7,423.1,545.8,409.3,561z M553.3,401.5c9.4,21.5,17.4,42.3,23.7,62.1
		c-20.5,4.7-42.6,8.4-65.9,11.2c7.5-11.8,14.7-23.8,21.7-35.9C539.9,426.6,546.7,414.2,553.3,401.5L553.3,401.5z M506.7,423.9
		c-10.7,18.6-22,36.8-33.9,54.7c-20.9,1.5-42.6,2.3-64.7,2.3c-22,0-43.3-0.7-63.9-2C332,461,320.5,442.7,309.7,424
		c-10.8-18.6-20.8-37.6-30.1-56.9c9.3-19.3,19.3-38.3,30-56.9v0c10.7-18.6,22.1-36.8,34.2-54.5c21-1.6,42.5-2.4,64.3-2.4
		c21.9,0,43.4,0.8,64.4,2.4c12,17.7,23.3,35.8,34,54.3c10.8,18.6,20.9,37.4,30.4,56.7C527.6,386.1,517.5,405.2,506.7,423.9
		L506.7,423.9z M568.9,87c23.6,13.6,32.8,68.6,18,140.7c-1,4.7-2,9.4-3.2,14c-29.3-6.8-61.1-11.8-94.4-14.9
		c-19.4-27.6-39.5-52.8-59.7-74.5c5.3-5.1,10.7-10.1,16.2-14.9C498,92.1,546.7,74.2,568.9,87L568.9,87z"/>
	<path class="st0" d="M408.1,303.4c34.8,0,63.1,28.2,63.1,63.1c0,34.8-28.2,63.1-63.1,63.1c-34.8,0-63.1-28.2-63.1-63.1
		C345.1,331.6,373.3,303.4,408.1,303.4"/>
</g>
<g>
	<path class="st0" d="M1087.1,318.3c0,18.9-5.8,34.1-17.3,45.6c-11.5,11.5-25.7,19.5-42.5,23.8l73.3,110.9h-42.9l-66.3-106.2h-31.2
		v106.2h-36.4V246.8h67.1c31.5,0,55.5,6,71.8,18C1079,276.8,1087.1,294.7,1087.1,318.3z M1048.6,318.3c0-15.5-4.5-26.6-13.4-33.4
		c-9-6.8-22.7-10.2-41.2-10.2h-33.8v90.3h34.2c17.3,0,30.7-3.6,40.1-10.7C1043.8,347.1,1048.6,335.1,1048.6,318.3z"/>
	<path class="st0" d="M1171.7,414.2c1,21.2,6.7,36.6,17.3,46.2c10.5,9.6,23.1,14.4,37.5,14.4c9.6,0,18.5-1.5,26.5-4.4
		s16.2-7.2,24.5-12.8l15.9,22.1c-9,7.2-19.4,12.9-31.2,17.1c-11.8,4.2-24.1,6.3-36.7,6.3c-19.2,0-35.6-4.2-49.1-12.7
		c-13.5-8.5-23.7-20.3-30.7-35.4c-7-15.1-10.5-32.6-10.5-52.6c0-19.4,3.5-36.7,10.5-51.9c7-15.2,16.9-27.2,29.7-36
		c12.8-8.8,28-13.2,45.7-13.2c24.9,0,44.4,8.5,58.7,25.5c14.3,17,21.5,40.2,21.5,69.7c0,3.3-0.1,6.5-0.2,9.5c-0.1,3-0.3,5.7-0.5,8
		H1171.7z M1221.4,328.9c-13.8,0-25.2,4.9-34.2,14.6c-9,9.7-14.2,24.8-15.5,45.1h95.7c-0.4-19.5-4.6-34.3-12.7-44.5
		C1246.7,334,1235.6,328.9,1221.4,328.9z"/>
	<path class="st0" d="M1504.6,454.4c0,7.7,1.2,13.2,3.7,16.7c2.4,3.5,6.3,6.1,11.5,7.8l-8.2,24.1c-8.8-1.1-16.4-3.7-22.9-7.9
		c-6.5-4.1-11.3-10.5-14.3-19c-6.9,9-15.7,15.8-26.3,20.3c-10.6,4.5-22.1,6.8-34.5,6.8c-19.4,0-34.7-5.5-45.9-16.4
		c-11.2-11-16.8-25.4-16.8-43.3c0-20,7.8-35.4,23.5-46.1c15.7-10.8,38.2-16.2,67.5-16.2h28v-14.6c0-13.3-3.9-22.7-11.8-28.3
		c-7.9-5.6-18.8-8.4-32.8-8.4c-6.5,0-14,0.8-22.8,2.4c-8.7,1.6-18,4.1-27.9,7.5l-9-25.6c11.8-4.5,23.2-7.7,34.2-9.7
		c11-1.9,21.2-2.9,30.7-2.9c24.7,0,43.3,5.7,55.6,17c12.4,11.3,18.5,26.7,18.5,46.2V454.4z M1423.3,476.9c8.9,0,17.5-2.3,25.9-6.9
		c8.3-4.6,15.2-11.1,20.6-19.4V404h-25.6c-20.3,0-34.8,3.4-43.3,10.3c-8.5,6.9-12.8,16.3-12.8,28.2
		C1388.1,465.4,1399.8,476.9,1423.3,476.9z"/>
	<path class="st0" d="M1671.5,473.6c9.4,0,18.1-1.6,26.2-4.7c8.1-3.1,15.7-7.2,22.7-12.2l16.8,22.8c-8.5,7.1-18.7,12.8-30.6,17.1
		c-11.9,4.3-23.8,6.5-35.7,6.5c-19.4,0-35.9-4.1-49.6-12.4s-24.2-19.9-31.3-34.9c-7.2-15-10.8-32.5-10.8-52.6
		c0-19.5,3.6-36.9,10.9-52.2c7.2-15.3,17.8-27.4,31.5-36.3c13.8-8.9,30.4-13.3,49.9-13.3c25.1,0,46.9,7.6,65.4,22.7l-16.6,22.8
		c-16.2-11.2-32.4-16.8-48.6-16.8c-16.1,0-29.2,6-39.5,17.9c-10.2,11.9-15.3,30.3-15.3,55.2c0,25,5.1,42.9,15.4,53.9
		C1642.6,468.1,1655.6,473.6,1671.5,473.6z"/>
	<path class="st0" d="M1957.6,488.8c-6.8,4.4-15,7.9-24.6,10.5c-9.6,2.6-19.2,3.9-29,3.9c-21.4,0-37.9-5.6-49.2-16.8
		c-11.4-11.2-17.1-25.8-17.1-43.7V332.4h-43.7V306h43.7v-43.5l35.1-4.2V306h65.8l-4,26.3h-61.8v110c0,10.6,2.7,18.6,8.1,23.9
		c5.4,5.4,14.5,8,27.1,8c7.1,0,13.6-0.8,19.6-2.5c6-1.6,11.6-3.9,16.7-6.7L1957.6,488.8z"/>
	<path class="st0" d="M2168.8,246.8v167c0,11.2-1.5,22.1-4.6,32.7c-3,10.6-8,20.2-14.9,28.7c-6.9,8.5-16,15.3-27.3,20.3
		s-25.2,7.5-41.7,7.5c-26.1,0-49.5-7.7-70.3-23l15.5-23.6c10.5,6.8,20.1,11.4,29,13.7c8.8,2.3,17.1,3.5,24.9,3.5
		c16.7,0,29.7-5.4,39.1-16.2c9.4-10.8,14.1-25.8,14.1-45V275.5h-75.1v-28.7H2168.8z"/>
	<path class="st0" d="M2402.7,428.3c0,14.6-3.7,27.6-11.1,38.8c-7.4,11.3-18,20.1-32,26.5c-14,6.4-30.9,9.6-50.7,9.6
		c-19.2,0-36.4-2.9-51.5-8.8c-15.1-5.8-28-13.9-38.6-24.1l20.6-23.2c8.8,8.2,18.8,14.6,30.1,19.4c11.3,4.8,24.5,7.1,39.7,7.1
		c9.9,0,19-1.6,27.5-4.8c8.5-3.2,15.3-8.1,20.5-14.6c5.2-6.5,7.8-14.7,7.8-24.6c0-7.8-1.6-14.5-4.7-20c-3.1-5.5-8.6-10.4-16.4-14.7
		c-7.8-4.3-18.7-8.5-32.7-12.6c-17.1-5-31.6-10.7-43.8-17.1c-12.1-6.4-21.4-14.1-27.8-23.2c-6.4-9.1-9.6-20.3-9.6-33.5
		c0-13,3.6-24.5,10.8-34.4c7.2-9.9,17.1-17.7,29.6-23.3c12.5-5.6,27-8.4,43.3-8.4c17.7,0,33.1,2.6,46.3,7.7
		c13.2,5.1,25.1,12.4,35.7,21.7l-20.1,22.7c-9-7.9-18.7-13.7-29-17.3c-10.3-3.6-20.7-5.4-31.3-5.4c-13.4,0-24.8,2.9-34.2,8.7
		c-9.4,5.8-14.1,14.6-14.1,26.4c0,7.1,1.9,13.1,5.7,18c3.8,4.9,10.1,9.5,19.1,13.6c9,4.1,21.2,8.5,36.8,13.2
		c13.5,4,25.9,8.9,37,14.7c11.1,5.8,20.1,13.6,26.8,23.4C2399.4,399.4,2402.7,412.3,2402.7,428.3z"/>
</g>
</svg>
