<?xml version="1.0" encoding="utf-8"?>
<!-- Generator: Adobe Illustrator 25.4.0, SVG Export Plug-In . SVG Version: 6.00 Build 0)  -->
<svg version="1.1" id="Layer_1" xmlns="http://www.w3.org/2000/svg" xmlns:xlink="http://www.w3.org/1999/xlink" x="0px" y="0px"
	 viewBox="0 0 32 32" style="enable-background:new 0 0 32 32;" xml:space="preserve">
<style type="text/css">
	.st0{fill:#1976D2;}
	.st1{fill:#FFFFFF;}
</style>
<g>
	<rect y="0" class="st0" width="32" height="32"/>
	<polygon class="st1" points="19.1,14.2 7.3,14.2 7.3,17.1 11.5,17.1 11.5,30.2 14.9,30.2 14.9,17.1 19.1,17.1 	"/>
	<path class="st1" d="M29.5,17.9c0,0-1.6-1.1-3.4-1.1c-1.8,0-2.4,0.9-2.4,1.8c0,2.4,6.6,2.1,6.6,6.9c0,7.3-10,4.1-10,4.1V26
		c0,0,1.9,1.4,4.2,1.4s2.2-1.5,2.2-1.7c0-2.2-6.5-2.2-6.5-7c0-6.6,9.5-4,9.5-4L29.5,17.9z"/>
</g>
</svg>
