<svg xmlns="http://www.w3.org/2000/svg" viewBox="0 0 357.07 262"><defs><style>.cls-1{fill:#41cd52;}.cls-2{fill:#fff;}</style></defs><g id="Layer_2" data-name="Layer 2"><g id="Layer_1-2" data-name="Layer 1"><path class="cls-1" d="M49.07,0h308V212.37L307.3,262H0V49Z"/><path class="cls-2" d="M94.58,55.14c11.7-7.74,26.15-9.7,39.9-9.57,13.09.17,26.76,2.46,37.69,10.28,7.88,5.55,13,14.1,16.42,22.95,5.52,14.53,7.15,30.23,7.33,45.67s-.67,31.43-5.83,46.25A51.83,51.83,0,0,1,171.43,196l18.81,30.21L166.76,237l-20-33a101.1,101.1,0,0,1-27.41.36c-10.89-1.31-22-4.63-30.41-12C82.47,186.79,78.42,179,75.56,171c-4.55-13.38-5.85-27.79-6-41.92-.11-15.27.87-30.78,5.48-45.44,3.56-11,9.46-22,19.42-28.48Zm132.74-.51H251.9l0,32.5h31.42l-.57,21.1c-10.47,0-20.93,0-31.39,0l.05,53.28c.2,4.85.08,10,2.23,14.48,1.56,3.46,5.85,4.34,9.19,4.46l19.36-.52,1.14,19.4c-12.84,2.16-26.31,4.74-39.06.7-5.36-1.67-10.38-5.16-12.55-10.47-3.91-9-4.22-19.08-4.39-28.79V108.25c-5.71,0-11.42,0-17.14,0V87.14l17.14,0,0-32.49Z"/><path class="cls-1" d="M124.05,67.78c7.94-1,16.3-.75,23.83,2.26a25.88,25.88,0,0,1,14,13.13c4.19,9.06,5.8,19.08,6.6,29a194,194,0,0,1-1.06,39.51c-1.28,7.77-3.09,16-8.36,22.12s-13.59,8.8-21.51,9.42c-8.34.61-17.14,0-24.69-3.94a24,24,0,0,1-10.31-10.51,60.31,60.31,0,0,1-5.11-17.16c-3.08-18.67-3.82-38,.38-56.56,1.73-7,4.25-14.18,9.36-19.48,4.45-4.51,10.66-6.85,16.83-7.72Z"/></g></g></svg>