<?xml version="1.0" encoding="utf-8"?>
<!-- Generator: Adobe Illustrator 25.4.0, SVG Export Plug-In . SVG Version: 6.00 Build 0)  -->
<svg version="1.1" id="Layer_1" xmlns="http://www.w3.org/2000/svg" xmlns:xlink="http://www.w3.org/1999/xlink" x="0px" y="0px"
	 viewBox="0 0 101 32" style="enable-background:new 0 0 101 32;" xml:space="preserve">
<style type="text/css">
	.st0{fill:#E10098;}
</style>
<g>
	<path class="st0" d="M39,9.2c-0.5,0-1,0.1-1.4,0.2c-0.4,0.1-0.8,0.3-1.1,0.6c-0.3,0.3-0.5,0.7-0.7,1.1c-0.2,0.5-0.3,1-0.3,1.7
		c0,1,0,2.1,0,3.1c0,0.7,0.1,1.2,0.3,1.7c0.2,0.5,0.4,0.8,0.7,1.2c0.3,0.3,0.7,0.5,1.1,0.6c0.4,0.1,0.9,0.2,1.4,0.2
		c0.5,0,1-0.1,1.4-0.2c0.4-0.2,0.8-0.4,1.1-0.7c0.3-0.3,0.6-0.7,0.8-1.2c0.2-0.5,0.3-1,0.3-1.6v-0.9h-3c-0.3,0-0.4-0.1-0.4-0.4v-0.2
		c0-0.3,0.1-0.4,0.4-0.4h3.7c0.3,0,0.4,0.1,0.4,0.4V16c0,0.7-0.1,1.3-0.3,1.9c-0.2,0.6-0.5,1.1-0.9,1.5c-0.4,0.4-0.9,0.7-1.5,1
		c-0.6,0.2-1.2,0.3-2,0.3c-0.8,0-1.4-0.1-2-0.3c-0.6-0.2-1.1-0.6-1.4-1c-0.4-0.4-0.7-0.9-0.9-1.4c-0.2-0.6-0.3-1.2-0.3-1.9
		c0-0.5,0-1.1,0-1.7c0-0.6,0-1.1,0-1.7c0-0.7,0.1-1.3,0.3-1.9c0.2-0.6,0.5-1.1,0.9-1.5C35.9,9,36.4,8.7,37,8.5
		c0.6-0.2,1.2-0.3,2-0.3c0.8,0,1.5,0.1,2.1,0.4c0.6,0.2,1,0.5,1.4,0.9c0.4,0.3,0.6,0.7,0.8,1.1c0.2,0.4,0.3,0.7,0.3,0.9
		c0,0.1,0,0.2-0.1,0.3c-0.1,0.1-0.2,0.1-0.3,0.1h-0.4c-0.1,0-0.2,0-0.2-0.1c0-0.1-0.1-0.2-0.1-0.3c-0.1-0.3-0.2-0.5-0.4-0.8
		c-0.2-0.3-0.4-0.5-0.7-0.7c-0.3-0.2-0.6-0.4-1-0.5C39.9,9.3,39.5,9.2,39,9.2L39,9.2z M47.2,12.7c0.4-0.8,1.2-1.2,2.4-1.2h0.6
		c0.3,0,0.4,0.1,0.4,0.4v0.2c0,0.3-0.1,0.4-0.4,0.4h-0.7c-0.7,0-1.2,0.2-1.7,0.6c-0.4,0.4-0.6,1-0.6,1.7v5.4c0,0.1,0,0.2-0.1,0.3
		c-0.1,0.1-0.2,0.1-0.3,0.1h-0.3c-0.3,0-0.4-0.1-0.4-0.4v-8.3c0-0.1,0-0.2,0.1-0.3c0.1-0.1,0.2-0.1,0.3-0.1h0.3c0.1,0,0.2,0,0.3,0.1
		c0.1,0.1,0.1,0.2,0.1,0.3L47.2,12.7L47.2,12.7z M57.9,20.5c-0.3,0-0.4-0.1-0.4-0.4v-0.8c-0.1,0.2-0.2,0.3-0.4,0.5
		c-0.2,0.2-0.4,0.3-0.6,0.4c-0.2,0.1-0.5,0.2-0.9,0.3c-0.3,0.1-0.7,0.1-1.2,0.1c-0.4,0-0.8-0.1-1.2-0.2c-0.4-0.1-0.7-0.3-1-0.6
		c-0.3-0.2-0.5-0.5-0.7-0.8c-0.2-0.3-0.2-0.7-0.2-1c0-0.4,0.1-0.7,0.2-1.1c0.2-0.3,0.4-0.6,0.7-0.8c0.3-0.2,0.7-0.4,1.1-0.6
		c0.4-0.2,0.9-0.3,1.4-0.3l2.8-0.4v-0.6c0-0.6-0.2-1.1-0.6-1.5c-0.4-0.3-1-0.5-1.8-0.5c-0.7,0-1.2,0.1-1.5,0.4
		c-0.3,0.2-0.6,0.5-0.7,0.8c0,0.1-0.1,0.2-0.2,0.3c-0.1,0-0.1,0.1-0.2,0.1h-0.2c-0.1,0-0.2,0-0.3-0.1C52,13.7,52,13.6,52,13.5
		c0-0.2,0.1-0.4,0.2-0.6c0.1-0.2,0.3-0.5,0.6-0.7c0.3-0.2,0.6-0.4,1-0.6c0.4-0.2,0.9-0.3,1.5-0.3c0.7,0,1.2,0.1,1.7,0.3
		c0.5,0.2,0.8,0.4,1.1,0.7c0.3,0.3,0.4,0.6,0.5,1c0.1,0.4,0.2,0.7,0.2,1.1v5.8c0,0.3-0.1,0.4-0.4,0.4L57.9,20.5L57.9,20.5z
		 M54.7,19.7c0.4,0,0.8-0.1,1.1-0.2c0.4-0.1,0.7-0.3,0.9-0.6c0.3-0.3,0.5-0.6,0.6-1c0.2-0.4,0.2-0.9,0.2-1.4v-0.6l-2.2,0.3
		c-1.9,0.3-2.9,0.9-2.9,1.8c0,0.3,0.1,0.5,0.2,0.7c0.1,0.2,0.3,0.4,0.5,0.5c0.2,0.1,0.4,0.2,0.7,0.3C54.1,19.7,54.4,19.7,54.7,19.7
		L54.7,19.7z M65.4,20.7c-0.7,0-1.3-0.1-1.8-0.4c-0.5-0.3-0.8-0.6-1.1-1v4.1c0,0.3-0.1,0.4-0.4,0.4h-0.3c-0.3,0-0.4-0.1-0.4-0.4
		V11.8c0-0.3,0.1-0.4,0.4-0.4h0.3c0.3,0,0.4,0.1,0.4,0.4v0.8c0.3-0.4,0.7-0.7,1.1-1c0.5-0.3,1.1-0.4,1.8-0.4c0.7,0,1.2,0.1,1.7,0.4
		c0.5,0.2,0.9,0.5,1.2,0.9c0.3,0.4,0.5,0.8,0.6,1.3c0.1,0.5,0.2,1,0.2,1.5c0,0.2,0,0.4,0,0.6c0,0.2,0,0.4,0,0.6c0,0.5-0.1,1-0.2,1.5
		c-0.1,0.5-0.3,0.9-0.6,1.3c-0.3,0.4-0.7,0.7-1.2,0.9C66.6,20.6,66,20.7,65.4,20.7L65.4,20.7z M62.4,15.4c0,0.2,0,0.4,0,0.7
		c0,0.3,0,0.5,0,0.7c0,0.3,0.1,0.7,0.2,1.1c0.1,0.3,0.3,0.7,0.5,0.9c0.2,0.3,0.5,0.5,0.9,0.7c0.3,0.2,0.8,0.3,1.3,0.3
		c0.5,0,0.9-0.1,1.3-0.3c0.3-0.2,0.6-0.4,0.8-0.7c0.2-0.3,0.4-0.6,0.5-1c0.1-0.4,0.2-0.8,0.2-1.2c0-0.3,0-0.7,0-1
		c0-0.4-0.1-0.8-0.2-1.2c-0.1-0.4-0.2-0.7-0.5-1c-0.2-0.3-0.5-0.5-0.8-0.7c-0.3-0.2-0.8-0.3-1.3-0.3c-0.5,0-0.9,0.1-1.3,0.3
		c-0.3,0.2-0.6,0.4-0.9,0.7c-0.2,0.3-0.4,0.6-0.5,1C62.5,14.7,62.5,15,62.4,15.4L62.4,15.4z M72.5,12.7c0.3-0.4,0.7-0.7,1.1-1
		c0.4-0.3,1-0.4,1.8-0.4c0.6,0,1.1,0.1,1.6,0.3c0.4,0.2,0.8,0.5,1.1,0.8c0.3,0.3,0.5,0.8,0.7,1.2c0.2,0.5,0.2,1,0.2,1.6v4.9
		c0,0.3-0.1,0.4-0.4,0.4h-0.3c-0.3,0-0.4-0.1-0.4-0.4v-4.9c0-0.9-0.2-1.7-0.7-2.2c-0.5-0.5-1.1-0.8-2-0.8c-0.8,0-1.5,0.3-2,0.8
		c-0.5,0.5-0.7,1.3-0.7,2.2v4.9c0,0.3-0.1,0.4-0.4,0.4h-0.3c-0.3,0-0.4-0.1-0.4-0.4V8.5c0-0.3,0.1-0.4,0.4-0.4h0.3
		c0.3,0,0.4,0.1,0.4,0.4L72.5,12.7L72.5,12.7z M86.1,8.2c0.7,0,1.3,0.1,1.8,0.3c0.6,0.2,1,0.5,1.4,0.9c0.4,0.4,0.7,0.9,0.9,1.5
		c0.2,0.6,0.4,1.3,0.4,2.1c0,0.5,0,1,0,1.5c0,0.5,0,0.9,0,1.5c-0.1,1.7-0.5,2.9-1.3,3.7l1.1,1.6c0,0,0,0,0,0.1c0,0,0,0.1,0,0.1
		c0,0.1,0,0.2-0.1,0.2c-0.1,0.1-0.2,0.1-0.2,0.1h-0.4c-0.1,0-0.2-0.1-0.3-0.2c-0.1-0.1-0.2-0.2-0.2-0.2l-0.8-1.1
		c-0.7,0.3-1.5,0.5-2.4,0.5c-1.5,0-2.6-0.4-3.4-1.2c-0.8-0.8-1.2-2-1.2-3.6c0-0.5,0-1,0-1.5c0-0.5,0-0.9,0-1.5
		c0-0.8,0.1-1.5,0.4-2.1c0.2-0.6,0.5-1.1,0.9-1.5c0.4-0.4,0.9-0.7,1.4-0.9C84.8,8.3,85.4,8.2,86.1,8.2L86.1,8.2z M86.1,9.2
		c-0.5,0-0.9,0.1-1.4,0.2c-0.4,0.1-0.8,0.4-1.1,0.7c-0.3,0.3-0.6,0.7-0.7,1.2c-0.2,0.5-0.3,1.1-0.3,1.7c0,0.3,0,0.5,0,0.7
		c0,0.2,0,0.4,0,0.6c0,0.2,0,0.4,0,0.7c0,0.2,0,0.5,0,0.7c0,0.7,0.1,1.3,0.3,1.8c0.2,0.5,0.4,0.9,0.7,1.2c0.3,0.3,0.7,0.5,1.1,0.7
		c0.4,0.1,0.9,0.2,1.4,0.2c0.5,0,1-0.1,1.4-0.2c0.4-0.2,0.8-0.4,1.1-0.7c0.3-0.3,0.6-0.7,0.7-1.2c0.2-0.5,0.3-1.1,0.3-1.8
		c0-0.3,0-0.5,0-0.7c0-0.2,0-0.5,0-0.7c0-0.2,0-0.4,0-0.6c0-0.2,0-0.5,0-0.7c0-0.7-0.1-1.3-0.3-1.7c-0.2-0.5-0.4-0.9-0.7-1.2
		c-0.3-0.3-0.7-0.5-1.1-0.7C87.1,9.3,86.6,9.2,86.1,9.2L86.1,9.2z M94.6,19.5h6c0.3,0,0.4,0.1,0.4,0.4v0.3c0,0.3-0.1,0.4-0.4,0.4
		h-6.7c-0.3,0-0.4-0.1-0.4-0.4V8.7c0-0.3,0.1-0.4,0.4-0.4h0.3c0.3,0,0.4,0.1,0.4,0.4L94.6,19.5L94.6,19.5z M2.6,24.4l-1.2-0.7
		L14.5,1l1.2,0.7L2.6,24.4z"/>
	<path class="st0" d="M1.1,21.9h26.2v1.4H1.1V21.9z"/>
	<path class="st0" d="M14.8,30.2L1.7,22.7l0.7-1.2L15.4,29L14.8,30.2z M26.1,10.5L13,3l0.7-1.2l13.1,7.6L26.1,10.5z"/>
	<path class="st0" d="M2.3,10.5L1.7,9.3l13.1-7.6L15.5,3L2.3,10.5z"/>
	<path class="st0" d="M25.9,24.4L12.8,1.7L14,1l13.1,22.7L25.9,24.4z M2.2,8.4h1.4v15.1H2.2V8.4z M24.9,8.4h1.4v15.1h-1.4L24.9,8.4z
		"/>
	<path class="st0" d="M14.5,29.6l-0.6-1L25.3,22l0.6,1L14.5,29.6z"/>
	<path class="st0" d="M28.1,24c-0.8,1.4-2.5,1.8-3.9,1c-1.4-0.8-1.8-2.5-1-3.9c0.8-1.4,2.5-1.8,3.9-1C28.4,20.9,28.9,22.6,28.1,24
		 M5.3,10.8c-0.8,1.4-2.5,1.8-3.9,1c-1.4-0.8-1.8-2.5-1-3.9c0.8-1.4,2.5-1.8,3.9-1C5.6,7.7,6.1,9.5,5.3,10.8 M0.4,24
		c-0.8-1.4-0.3-3.1,1-3.9c1.4-0.8,3.1-0.3,3.9,1c0.8,1.4,0.3,3.1-1,3.9C2.9,25.8,1.2,25.4,0.4,24 M23.2,10.8c-0.8-1.4-0.3-3.1,1-3.9
		c1.4-0.8,3.1-0.3,3.9,1c0.8,1.4,0.3,3.1-1,3.9C25.7,12.7,23.9,12.2,23.2,10.8 M14.2,32c-1.6,0-2.9-1.3-2.9-2.9
		c0-1.6,1.3-2.9,2.9-2.9s2.9,1.3,2.9,2.9C17.1,30.7,15.8,32,14.2,32 M14.2,5.7c-1.6,0-2.9-1.3-2.9-2.9S12.7,0,14.2,0
		s2.9,1.3,2.9,2.9C17.1,4.4,15.8,5.7,14.2,5.7C14.2,5.7,14.2,5.7,14.2,5.7"/>
</g>
</svg>
