<?xml version="1.0" encoding="utf-8"?>
<!-- Generator: Adobe Illustrator 25.4.0, SVG Export Plug-In . SVG Version: 6.00 Build 0)  -->
<svg version="1.1" id="Layer_1" xmlns="http://www.w3.org/2000/svg" xmlns:xlink="http://www.w3.org/1999/xlink" x="0px" y="0px"
	 viewBox="0 0 92.7 32" style="enable-background:new 0 0 92.7 32;" xml:space="preserve">
<style type="text/css">
	.st0{fill-rule:evenodd;clip-rule:evenodd;}
	.st1{fill-rule:evenodd;clip-rule:evenodd;fill:#FFFFFF;}
	.st2{fill-rule:evenodd;clip-rule:evenodd;fill:#00F2E6;}
	.st3{fill-rule:evenodd;clip-rule:evenodd;fill:#00B9F1;}
	.st4{fill-rule:evenodd;clip-rule:evenodd;fill:#D63AFF;}
	.st5{fill-rule:evenodd;clip-rule:evenodd;fill:#FB015B;}
</style>
<g>
	<path class="st0" d="M0,0h92.7v32H0V0z"/>
	<path class="st1" d="M21.8,9.8l0-7.2h-4l0,7.2l2,2.7L21.8,9.8z M17.8,22.1v7.2h4v-7.2l-2-2.7L17.8,22.1z"/>
	<path class="st2" d="M21.8,22.1l4.2,5.8l3.2-2.3L25,19.7l-3.2-1V22.1z M17.8,9.8L13.6,4l-3.2,2.3l4.2,5.8l3.2,1V9.8z"/>
	<path class="st3" d="M14.5,12.1L7.7,9.9l-1.2,3.8l6.8,2.2l3.2-1.1L14.5,12.1z M23,17l2,2.7l6.8,2.2l1.2-3.8l-6.8-2.2L23,17z"/>
	<path class="st4" d="M26.2,15.9l6.8-2.2l-1.2-3.8L25,12.1l-2,2.7L26.2,15.9z M13.3,15.9l-6.8,2.2l1.2,3.8l6.8-2.2l2-2.7L13.3,15.9z
		"/>
	<path class="st5" d="M14.5,19.7l-4.2,5.8l3.2,2.3l4.2-5.8v-3.4L14.5,19.7z M25,12.1l4.2-5.8L26,4l-4.2,5.8v3.4L25,12.1z"/>
	<path class="st1" d="M48,9.4v9.3c0,2.1-1.7,3.7-3.7,3.7v-1.9c1,0,1.9-0.8,1.9-1.9V9.4H48z M82.1,11.3h4.2V9.4H76v1.9h4.2v11.2h1.9
		V11.3z M70.4,9.4v9.3c0,1-0.8,1.9-1.9,1.9c-1,0-1.9-0.8-1.9-1.9v-5.6c0-2.1-1.7-3.7-3.7-3.7s-3.7,1.7-3.7,3.7v5.6
		c0,1-0.8,1.9-1.9,1.9c-1,0-1.9-0.8-1.9-1.9V9.4h-1.9v9.3c0,2.1,1.7,3.7,3.7,3.7c2.1,0,3.7-1.7,3.7-3.7v-5.6c0-1,0.8-1.9,1.9-1.9
		c1,0,1.9,0.8,1.9,1.9v5.6c0,2.1,1.7,3.7,3.7,3.7s3.7-1.7,3.7-3.7V9.4H70.4z"/>
</g>
</svg>
