<svg xmlns="http://www.w3.org/2000/svg" width="753.308" height="120.529" viewBox="0 0 753.308 120.529">
  <path id="Path_1" data-name="Path 1" d="M142.972.006h29.566L136.1,120.529H109.5L86.269,47.971,63.212,120.529H36.436L0,.006H29.747l23.244,74.24L75.855,0H97.611l22.123,74.24L142.972,0ZM198.1,105.783q-14.5-14.735-14.5-39.636V.006h28.258V66.514q0,13.921,7.81,21.237t21.382,7.322q13.379,0,21.1-7.322,7.711-7.322,7.714-21.237V0h28.258V66.14q0,24.9-14.319,39.636t-42.758,14.753q-28.448,0-42.951-14.741ZM309.079,101.6l67.31-77.8H310.755V.006H411.336v19.1L344.413,96.737h66.93v23.792H309.079V101.606Zm113.316,0,67.3-77.8H424.07V.006H524.652v19.1l-66.93,77.621h66.93v23.792H422.4V101.6Zm127.918,4.182Q535.8,91.048,535.807,66.146V.006h28.264V66.514q0,13.921,7.8,21.237t21.382,7.322q13.388,0,21.1-7.322t7.714-21.237V0H650.34V66.14q0,24.9-14.319,39.636t-42.764,14.741q-28.448,0-42.945-14.741ZM690.6,71.233v49.3H662.339V0h90.97L746.8,24H690.6V49.3h47.965L732.6,71.233h-42Z" fill="#0055d9"/>
</svg>
