<?xml version="1.0" encoding="utf-8"?>
<!-- Generator: Adobe Illustrator 25.4.0, SVG Export Plug-In . SVG Version: 6.00 Build 0)  -->
<svg version="1.1" id="Layer_1" xmlns="http://www.w3.org/2000/svg" xmlns:xlink="http://www.w3.org/1999/xlink" x="0px" y="0px"
	 viewBox="0 0 32.8 32" style="enable-background:new 0 0 32.8 32;" xml:space="preserve">
<style type="text/css">
	.st0{fill:#EB43A3;}
	.st1{fill:#412534;}
</style>
<g id="Layer_2_00000059311211828484653830000012410951591714408359_">
	<g id="Layer_1-2">
		<path class="st0" d="M32.8,5.8v20.4c0,3.2-2.6,5.8-5.8,5.8c0,0,0,0,0,0H5.8c-1.5,0-3-0.6-4.1-1.7C0.6,29.2,0,27.7,0,26.2V5.8
			c0-1.5,0.6-3,1.7-4.1C2.8,0.6,4.3,0,5.8,0H27c1.5,0,3,0.6,4.1,1.7C32.2,2.8,32.8,4.3,32.8,5.8z M31.4,25.7V6.3
			c0-1.3-0.5-2.6-1.4-3.5c-0.9-1-2.2-1.5-3.5-1.5H6.3C5,1.3,3.7,1.9,2.8,2.8C1.9,3.7,1.3,5,1.4,6.3v19.3c0,1.3,0.5,2.6,1.5,3.5
			c0.9,0.9,2.2,1.5,3.5,1.4h20.2c1.3,0,2.6-0.5,3.5-1.4C30.9,28.3,31.4,27,31.4,25.7z"/>
		<path class="st1" d="M31.4,6.3v19.3c0,1.3-0.5,2.6-1.5,3.5c-0.9,0.9-2.2,1.5-3.5,1.4H6.3c-1.3,0-2.6-0.5-3.5-1.5
			c-1-0.9-1.5-2.2-1.5-3.5V6.3c0-1.3,0.5-2.6,1.5-3.5C3.7,1.9,5,1.3,6.3,1.4h20.1c1.3,0,2.6,0.5,3.5,1.5C30.9,3.7,31.5,5,31.4,6.3z
			 M24.1,23.4c0,0,0-0.1,0-0.1c-0.1-0.6-0.1-1.1-0.1-1.5V7.3c0,0,0-0.1,0-0.1c0,0-0.1,0-0.1,0h-2.5c0,0-0.1,0-0.1,0
			c0,0-0.1,0.1,0,0.1v4.1c-0.1,0-0.3,0-0.4,0h-0.4c-1.9,0-3.5,0.6-4.6,1.9s-1.7,2.8-1.7,4.7c0,2.1,0.5,3.7,1.6,4.8
			c1.1,1.1,2.5,1.6,4.2,1.6c1.4,0,2.8-0.3,4-0.9C24.1,23.4,24.1,23.4,24.1,23.4L24.1,23.4z M11.5,23.9V7.4c0-0.1-0.1-0.2-0.2-0.2
			H8.9c-0.1,0-0.2,0.1-0.2,0.2v16.5c0,0.1,0,0.2,0.1,0.2c0,0,0,0,0.1,0h2.4c0.1,0,0.1,0,0.2,0C11.5,24,11.5,23.9,11.5,23.9
			L11.5,23.9z"/>
		<path class="st0" d="M24.2,23.2c0,0.1,0,0.1,0,0.1c0,0-0.1,0-0.1,0.1c-1.3,0.6-2.6,0.9-4,0.9c-1.7,0-3.1-0.5-4.2-1.6
			c-1.1-1.1-1.6-2.7-1.6-4.8c0-1.8,0.6-3.4,1.7-4.7c1.1-1.3,2.7-1.9,4.6-1.9h0.4c0.1,0,0.2,0,0.4,0V7.4c0,0,0-0.1,0-0.1
			c0,0,0.1,0,0.1,0h2.5c0,0,0.1,0,0.1,0c0,0,0,0.1,0,0.1v14.4C24.1,22.1,24.1,22.6,24.2,23.2z M21.3,21.7v-7.8
			c-0.3-0.1-0.6-0.2-0.9-0.2c-0.9,0-1.8,0.4-2.4,1.1c-0.6,0.7-0.9,1.7-0.9,3c0,1.4,0.3,2.5,0.9,3.1c0.6,0.6,1.4,1,2.2,0.9
			C20.6,21.9,20.9,21.8,21.3,21.7z"/>
		<path class="st1" d="M21.3,13.9v7.8c-0.4,0.1-0.7,0.2-1.1,0.2c-0.8,0-1.7-0.3-2.2-0.9c-0.6-0.6-0.9-1.7-0.9-3.1
			c0-1.3,0.3-2.3,0.9-3c0.6-0.7,1.5-1.1,2.4-1.1C20.7,13.7,21,13.8,21.3,13.9z"/>
		<path class="st0" d="M11.5,7.4v16.5c0,0.1,0,0.1,0,0.2c-0.1,0-0.1,0-0.2,0H8.9c-0.1,0-0.2,0-0.2-0.1c0,0,0,0,0-0.1V7.4
			c0-0.1,0.1-0.2,0.2-0.2h2.4C11.4,7.2,11.5,7.3,11.5,7.4z"/>
	</g>
</g>
</svg>
