<?xml version="1.0" encoding="utf-8"?>
<!-- Generator: Adobe Illustrator 25.4.0, SVG Export Plug-In . SVG Version: 6.00 Build 0)  -->
<svg version="1.1" id="Layer_1" xmlns="http://www.w3.org/2000/svg" xmlns:xlink="http://www.w3.org/1999/xlink" x="0px" y="0px"
	 viewBox="0 0 126.8 32" style="enable-background:new 0 0 126.8 32;" xml:space="preserve">
<style type="text/css">
	.st0{fill:#00684A;}
</style>
<g>
	<path class="st0" d="M9.5,3.3C8.2,1.8,7.2,0.3,6.9,0c0,0-0.1,0-0.1,0C6.6,0.3,5.6,1.8,4.3,3.3C-6.3,16.9,6,26.1,6,26.1l0.1,0.1
		c0.1,1.4,0.3,3.5,0.3,3.5h0.5h0.5c0,0,0.2-2,0.3-3.5L7.8,26C7.8,26.1,20.1,16.9,9.5,3.3z M6.9,25.9c0,0-0.6-0.5-0.7-0.7v0l0.7-14.8
		c0,0,0.1,0,0.1,0l0.7,14.8v0C7.5,25.4,6.9,25.9,6.9,25.9z"/>
	<path class="st0" d="M30,22.7l-5.1-12.5l0,0h-4v0.8h0.6c0.2,0,0.4,0.1,0.5,0.2c0.1,0.1,0.2,0.3,0.2,0.5l-0.1,12.5
		c0,0.4-0.3,0.7-0.7,0.7l-0.7,0v0.8h3.9v-0.8l-0.4,0c-0.4,0-0.7-0.3-0.7-0.7V12.5l5.6,13.4c0.1,0.2,0.3,0.3,0.5,0.3
		c0.2,0,0.4-0.1,0.5-0.3l5.5-13.1l0.1,11.5c0,0.4-0.3,0.7-0.7,0.7h-0.4v0.8H39v-0.8h-0.6c-0.4,0-0.7-0.3-0.7-0.7l0-12.5
		c0-0.4,0.3-0.7,0.7-0.7l0.7,0v-0.8h-3.9L30,22.7z"/>
	<path class="st0" d="M65.8,24.9c-0.1-0.1-0.2-0.3-0.2-0.5v-6.1c0-1.2-0.3-2.1-1-2.7c-0.7-0.7-1.6-1-2.8-1c-1.7,0-3,0.7-3.9,2
		c0,0,0,0-0.1,0c0,0-0.1,0-0.1-0.1l-0.4-1.6h-0.7l-1.8,1v0.6h0.5c0.2,0,0.4,0.1,0.5,0.2c0.1,0.1,0.2,0.3,0.2,0.5v7.2
		c0,0.2-0.1,0.4-0.2,0.5c-0.1,0.1-0.3,0.2-0.5,0.2h-0.5v0.8h4.2v-0.8h-0.5c-0.2,0-0.4-0.1-0.5-0.2c-0.1-0.1-0.2-0.3-0.2-0.5v-4.8
		c0-0.6,0.1-1.2,0.4-1.8c0.3-0.6,0.7-1.1,1.2-1.5c0.5-0.4,1.1-0.6,1.9-0.6c0.8,0,1.4,0.3,1.8,0.8c0.4,0.5,0.6,1.2,0.6,1.9v5.9
		c0,0.2-0.1,0.4-0.2,0.5c-0.1,0.1-0.3,0.2-0.5,0.2h-0.5v0.8h4.2v-0.8h-0.5C66.1,25.1,66,25,65.8,24.9z"/>
	<path class="st0" d="M104.5,11.2c-1.2-0.6-2.5-0.9-3.9-0.9h-5.5v0.8h0.5c0.2,0,0.4,0.1,0.6,0.3c0.2,0.2,0.3,0.4,0.3,0.6v12.4
		c0,0.2-0.1,0.4-0.3,0.6c-0.2,0.2-0.4,0.3-0.6,0.3h-0.5V26h5.5c1.4,0,2.7-0.3,3.9-0.9c1.2-0.6,2.1-1.5,2.8-2.7c0.7-1.2,1-2.6,1-4.2
		c0-1.6-0.4-3-1-4.2C106.6,12.7,105.6,11.8,104.5,11.2z M106.1,18.1c0,1.5-0.3,2.7-0.8,3.7c-0.5,1-1.2,1.8-2.1,2.2
		c-0.8,0.5-1.8,0.7-2.8,0.7h-1.1c-0.2,0-0.4-0.1-0.6-0.3c-0.2-0.2-0.3-0.4-0.3-0.6V12.3c0-0.2,0.1-0.4,0.3-0.6
		c0.2-0.2,0.4-0.3,0.6-0.3h1.1c1,0,1.9,0.2,2.8,0.7c0.8,0.5,1.5,1.2,2.1,2.2C105.8,15.4,106.1,16.6,106.1,18.1z"/>
	<path class="st0" d="M121.3,19c-0.5-0.6-1.5-1.1-2.6-1.3c1.6-0.8,2.4-1.9,2.4-3.4c0-0.8-0.2-1.5-0.6-2.1c-0.4-0.6-1-1.1-1.8-1.4
		c-0.8-0.3-1.6-0.5-2.6-0.5h-6.2v0.8h0.5c0.2,0,0.4,0.1,0.6,0.3c0.2,0.2,0.3,0.4,0.3,0.6v12.4c0,0.2-0.1,0.4-0.3,0.6
		c-0.2,0.2-0.4,0.3-0.6,0.3h-0.5V26h6.8c1,0,2-0.2,2.9-0.5c0.9-0.3,1.6-0.9,2.1-1.5c0.5-0.7,0.8-1.5,0.8-2.4
		C122.2,20.5,121.9,19.7,121.3,19z M113.6,24.6c-0.2-0.2-0.3-0.4-0.3-0.6v-5.6h3.2c1.1,0,2,0.3,2.6,0.9c0.6,0.6,0.9,1.3,0.9,2.2
		c0,0.6-0.1,1.1-0.4,1.6c-0.3,0.5-0.7,0.9-1.2,1.2c-0.5,0.3-1.2,0.5-1.9,0.5h-2.4C113.9,24.8,113.8,24.7,113.6,24.6z M113.3,17.2
		v-4.9c0-0.2,0.1-0.4,0.3-0.6c0.2-0.2,0.4-0.3,0.6-0.3h1.5c1.1,0,1.9,0.3,2.4,0.8c0.5,0.5,0.8,1.2,0.8,2.1c0,0.9-0.2,1.6-0.7,2.1
		c-0.5,0.5-1.2,0.8-2.1,0.8H113.3z"/>
	<path class="st0" d="M49.7,15.2c-0.9-0.5-1.9-0.7-2.9-0.7c-1.1,0-2.1,0.2-2.9,0.7c-0.9,0.5-1.6,1.2-2.1,2.1S41,19.2,41,20.4
		c0,1.1,0.3,2.2,0.8,3.1s1.2,1.6,2.1,2.1c0.9,0.5,1.9,0.7,2.9,0.7c1.1,0,2.1-0.2,2.9-0.7c0.9-0.5,1.6-1.2,2.1-2.1s0.8-1.9,0.8-3.1
		c0-1.1-0.3-2.2-0.8-3.1S50.6,15.7,49.7,15.2z M50.6,20.4c0,1.4-0.3,2.6-1,3.4c-0.7,0.8-1.6,1.3-2.8,1.3c-1.1,0-2.1-0.4-2.8-1.3
		c-0.7-0.8-1-2-1-3.4c0-1.4,0.3-2.6,1-3.4c0.7-0.8,1.6-1.3,2.8-1.3c1.1,0,2.1,0.4,2.8,1.3C50.2,17.8,50.6,19,50.6,20.4z"/>
	<path class="st0" d="M90.4,15.2c-0.9-0.5-1.9-0.7-2.9-0.7s-2.1,0.2-2.9,0.7c-0.9,0.5-1.6,1.2-2.1,2.1c-0.5,0.9-0.8,1.9-0.8,3.1
		c0,1.1,0.3,2.2,0.8,3.1c0.5,0.9,1.2,1.6,2.1,2.1c0.9,0.5,1.9,0.7,2.9,0.7s2.1-0.2,2.9-0.7c0.9-0.5,1.6-1.2,2.1-2.1
		c0.5-0.9,0.8-1.9,0.8-3.1c0-1.1-0.3-2.2-0.8-3.1C91.9,16.4,91.2,15.7,90.4,15.2z M91.2,20.4c0,1.4-0.3,2.6-1,3.4
		c-0.7,0.8-1.6,1.3-2.8,1.3c-1.1,0-2.1-0.4-2.8-1.3c-0.7-0.8-1-2-1-3.4c0-1.4,0.3-2.6,1-3.4c0.7-0.8,1.6-1.3,2.8-1.3
		c1.1,0,2.1,0.4,2.8,1.3C90.9,17.8,91.2,19,91.2,20.4z"/>
	<path class="st0" d="M74,14.5c-0.9,0-1.8,0.2-2.5,0.6c-0.8,0.4-1.4,0.9-1.8,1.6c-0.4,0.7-0.6,1.4-0.6,2.2c0,0.7,0.2,1.4,0.5,2
		c0.3,0.6,0.8,1,1.3,1.4l-1.7,2.2c-0.2,0.3-0.2,0.6-0.1,0.9c0.2,0.3,0.5,0.5,0.8,0.5h0.5c-0.5,0.3-0.8,0.7-1.1,1.1
		c-0.3,0.5-0.5,1-0.5,1.5c0,1,0.4,1.8,1.3,2.4c0.9,0.6,2.1,0.9,3.6,0.9c1.1,0,2.1-0.2,3-0.5c0.9-0.3,1.7-0.8,2.2-1.5
		c0.6-0.6,0.9-1.4,0.9-2.3c0-0.9-0.3-1.6-1.2-2.3c-0.7-0.5-1.8-0.8-3.1-0.8h-4.6c0,0,0,0,0,0s0,0,0,0l1.2-1.6
		c0.3,0.1,0.6,0.2,0.9,0.3c0.3,0.1,0.6,0.1,0.9,0.1c1,0,1.8-0.2,2.6-0.6c0.8-0.4,1.4-0.9,1.8-1.6c0.4-0.7,0.7-1.4,0.7-2.2
		c0-0.9-0.4-2.4-1.5-3.2c0,0,0,0,0,0l2.5,0.3v-1.1h-4C75.3,14.6,74.6,14.5,74,14.5z M75.4,21.7c-0.4,0.2-0.9,0.4-1.4,0.4
		c-0.8,0-1.5-0.3-2-0.8c-0.6-0.5-0.9-1.3-0.9-2.4c0-1,0.3-1.8,0.9-2.4c0.6-0.5,1.3-0.8,2-0.8c0.5,0,0.9,0.1,1.4,0.4
		c0.4,0.2,0.8,0.6,1.1,1.1c0.3,0.5,0.4,1.1,0.4,1.8c0,0.7-0.1,1.3-0.4,1.8C76.2,21.1,75.8,21.5,75.4,21.7z M72.2,26h3.1
		c0.9,0,1.4,0.2,1.8,0.5c0.4,0.4,0.6,0.9,0.6,1.4c0,0.8-0.3,1.5-1,2.1c-0.7,0.5-1.6,0.8-2.7,0.8c-1,0-1.8-0.2-2.4-0.6
		c-0.6-0.4-0.9-1.1-0.9-1.9c0-0.5,0.1-1,0.4-1.4C71.5,26.5,71.8,26.2,72.2,26z"/>
	<path class="st0" d="M124.6,25.8c-0.2-0.1-0.4-0.3-0.5-0.5c-0.1-0.2-0.2-0.5-0.2-0.7c0-0.3,0.1-0.5,0.2-0.7
		c0.1-0.2,0.3-0.4,0.5-0.5c0.2-0.1,0.5-0.2,0.8-0.2c0.3,0,0.5,0.1,0.8,0.2c0.2,0.1,0.4,0.3,0.5,0.5c0.1,0.2,0.2,0.5,0.2,0.7
		c0,0.3-0.1,0.5-0.2,0.7c-0.1,0.2-0.3,0.4-0.5,0.5c-0.2,0.1-0.5,0.2-0.8,0.2C125.1,26,124.8,25.9,124.6,25.8z M126,25.7
		c0.2-0.1,0.3-0.3,0.4-0.4c0.1-0.2,0.2-0.4,0.2-0.6c0-0.2-0.1-0.5-0.2-0.6c-0.1-0.2-0.3-0.3-0.4-0.4c-0.2-0.1-0.4-0.2-0.6-0.2
		c-0.2,0-0.4,0.1-0.6,0.2c-0.2,0.1-0.3,0.3-0.4,0.4c-0.1,0.2-0.2,0.4-0.2,0.6c0,0.2,0.1,0.5,0.2,0.6c0.1,0.2,0.3,0.3,0.4,0.4
		c0.2,0.1,0.4,0.2,0.6,0.2C125.6,25.8,125.8,25.8,126,25.7z M124.7,25.3v-0.1l0,0h0.1c0,0,0,0,0.1,0c0,0,0,0,0-0.1V24c0,0,0,0,0-0.1
		c0,0,0,0-0.1,0h-0.1l0,0v-0.1l0,0h0.6c0.2,0,0.3,0,0.4,0.1c0.1,0.1,0.1,0.2,0.1,0.3c0,0.1,0,0.2-0.1,0.3c-0.1,0.1-0.2,0.1-0.3,0.1
		l0.1,0l0.3,0.4c0,0,0,0,0.1,0h0.1l0,0v0.1l0,0h-0.4l0,0l-0.4-0.6h-0.1v0.4c0,0,0,0,0,0.1c0,0,0,0,0.1,0h0.1l0,0v0.1l0,0L124.7,25.3
		L124.7,25.3z M125.3,24.5c0.1,0,0.2,0,0.2-0.1c0,0,0.1-0.1,0.1-0.2c0-0.1,0-0.2-0.1-0.2c0-0.1-0.1-0.1-0.2-0.1h0c0,0,0,0-0.1,0
		c0,0,0,0,0,0.1L125.3,24.5L125.3,24.5z"/>
</g>
</svg>
